<svg xmlns="http://www.w3.org/2000/svg" xmlns:xlink="http://www.w3.org/1999/xlink" width="1328" height="607.988" viewBox="0 0 1328 607.988">
  <defs>
    <filter id="Trazado_673748" x="34" y="299.839" width="257" height="89" filterUnits="userSpaceOnUse">
      <feOffset dy="5" input="SourceAlpha"/>
      <feGaussianBlur stdDeviation="3" result="blur"/>
      <feFlood flood-opacity="0.161"/>
      <feComposite operator="in" in2="blur"/>
      <feComposite in="SourceGraphic"/>
    </filter>
    <filter id="Trazado_673749" x="699" y="215.839" width="257" height="136" filterUnits="userSpaceOnUse">
      <feOffset dy="5" input="SourceAlpha"/>
      <feGaussianBlur stdDeviation="3" result="blur-2"/>
      <feFlood flood-opacity="0.161"/>
      <feComposite operator="in" in2="blur-2"/>
      <feComposite in="SourceGraphic"/>
    </filter>
    <filter id="Trazado_673750" x="699" y="359.839" width="257" height="136" filterUnits="userSpaceOnUse">
      <feOffset dy="5" input="SourceAlpha"/>
      <feGaussianBlur stdDeviation="3" result="blur-3"/>
      <feFlood flood-opacity="0.161"/>
      <feComposite operator="in" in2="blur-3"/>
      <feComposite in="SourceGraphic"/>
    </filter>
    <filter id="Trazado_673751" x="371" y="75.839" width="257" height="89" filterUnits="userSpaceOnUse">
      <feOffset dy="5" input="SourceAlpha"/>
      <feGaussianBlur stdDeviation="3" result="blur-4"/>
      <feFlood flood-opacity="0.161"/>
      <feComposite operator="in" in2="blur-4"/>
      <feComposite in="SourceGraphic"/>
    </filter>
    <filter id="Trazado_673752" x="1035" y="239.839" width="257" height="89" filterUnits="userSpaceOnUse">
      <feOffset dy="5" input="SourceAlpha"/>
      <feGaussianBlur stdDeviation="3" result="blur-5"/>
      <feFlood flood-opacity="0.161"/>
      <feComposite operator="in" in2="blur-5"/>
      <feComposite in="SourceGraphic"/>
    </filter>
    <filter id="Trazado_673753" x="1035" y="383.839" width="257" height="89" filterUnits="userSpaceOnUse">
      <feOffset dy="5" input="SourceAlpha"/>
      <feGaussianBlur stdDeviation="3" result="blur-6"/>
      <feFlood flood-opacity="0.161"/>
      <feComposite operator="in" in2="blur-6"/>
      <feComposite in="SourceGraphic"/>
    </filter>
    <filter id="Trazado_673762" x="270.436" y="330.483" width="417.564" height="27" filterUnits="userSpaceOnUse">
      <feOffset dy="5" input="SourceAlpha"/>
      <feGaussianBlur stdDeviation="3" result="blur-7"/>
      <feFlood flood-opacity="0.161"/>
      <feComposite operator="in" in2="blur-7"/>
      <feComposite in="SourceGraphic"/>
    </filter>
    <filter id="Trazado_673763" x="973" y="270.339" width="80" height="27" filterUnits="userSpaceOnUse">
      <feOffset dy="5" input="SourceAlpha"/>
      <feGaussianBlur stdDeviation="3" result="blur-8"/>
      <feFlood flood-opacity="0.161"/>
      <feComposite operator="in" in2="blur-8"/>
      <feComposite in="SourceGraphic"/>
    </filter>
    <filter id="Trazado_673764" x="973" y="414.924" width="80" height="27" filterUnits="userSpaceOnUse">
      <feOffset dy="5" input="SourceAlpha"/>
      <feGaussianBlur stdDeviation="3" result="blur-9"/>
      <feFlood flood-opacity="0.161"/>
      <feComposite operator="in" in2="blur-9"/>
      <feComposite in="SourceGraphic"/>
    </filter>
    <filter id="Trazado_673765" x="670" y="270.339" width="47" height="27" filterUnits="userSpaceOnUse">
      <feOffset dy="5" input="SourceAlpha"/>
      <feGaussianBlur stdDeviation="3" result="blur-10"/>
      <feFlood flood-opacity="0.161"/>
      <feComposite operator="in" in2="blur-10"/>
      <feComposite in="SourceGraphic"/>
    </filter>
    <filter id="Trazado_673766" x="670" y="409.839" width="47" height="27" filterUnits="userSpaceOnUse">
      <feOffset dy="5" input="SourceAlpha"/>
      <feGaussianBlur stdDeviation="3" result="blur-11"/>
      <feFlood flood-opacity="0.161"/>
      <feComposite operator="in" in2="blur-11"/>
      <feComposite in="SourceGraphic"/>
    </filter>
    <filter id="Trazado_673767" x="670" y="270.339" width="27" height="166.5" filterUnits="userSpaceOnUse">
      <feOffset dy="5" input="SourceAlpha"/>
      <feGaussianBlur stdDeviation="3" result="blur-12"/>
      <feFlood flood-opacity="0.161"/>
      <feComposite operator="in" in2="blur-12"/>
      <feComposite in="SourceGraphic"/>
    </filter>
    <filter id="Trazado_673768" x="945.291" y="256.252" width="48.709" height="54.003" filterUnits="userSpaceOnUse">
      <feOffset dy="5" input="SourceAlpha"/>
      <feGaussianBlur stdDeviation="3" result="blur-13"/>
      <feFlood flood-opacity="0.161"/>
      <feComposite operator="in" in2="blur-13"/>
      <feComposite in="SourceGraphic"/>
    </filter>
    <filter id="Trazado_673769" x="945.291" y="400.838" width="48.709" height="54.003" filterUnits="userSpaceOnUse">
      <feOffset dy="5" input="SourceAlpha"/>
      <feGaussianBlur stdDeviation="3" result="blur-14"/>
      <feFlood flood-opacity="0.161"/>
      <feComposite operator="in" in2="blur-14"/>
      <feComposite in="SourceGraphic"/>
    </filter>
  </defs>
  <g id="Grupo_904269" data-name="Grupo 904269" transform="translate(-137 -5409.607)">
    <path id="Trazado_625231" data-name="Trazado 625231" d="M0,0H1328V607.988H0Z" transform="translate(137 5409.607)" fill="#fecb2f" opacity="0.1"/>
    <path id="Trazado_623843" data-name="Trazado 623843" d="M0,112.775c76.555.66,138.468,86.016,138.468,191.219S76.555,494.553,0,495.213V607.987c121.946-.661,220.655-136.508,220.655-303.994S121.946.661,0,0Z" transform="translate(137 5409.608)" fill="#edfbf9" opacity="0.95"/>
    <path id="Trazado_25" data-name="Trazado 25" d="M97.688,242.533l-8.469-8.469L76.87,246.413,64.52,234.064l-8.467,8.469L68.4,254.882,56.053,267.231,64.52,275.7,76.87,263.349,89.219,275.7l8.469-8.467L85.338,254.882Z" transform="translate(1342.374 5195.826)" fill="#c3cfd9"/>
    <path id="Trazado_26" data-name="Trazado 26" d="M97.688,296.984l-8.469-8.469L76.87,300.864,64.52,288.515l-8.467,8.469L68.4,309.333,56.053,321.682l8.467,8.468L76.87,317.8,89.219,330.15l8.469-8.468L85.338,309.333Z" transform="translate(1342.374 5218.541)" fill="#c3cfd9"/>
    <path id="Trazado_27" data-name="Trazado 27" d="M97.688,351.434l-8.469-8.469L76.87,355.314,64.52,342.965l-8.467,8.469L68.4,363.783,56.053,376.132,64.52,384.6,76.87,372.25,89.219,384.6l8.469-8.468L85.338,363.783Z" transform="translate(1342.374 5241.254)" fill="#c3cfd9"/>
    <g id="Grupo_67" data-name="Grupo 67" transform="translate(1262.187 5423.985)">
      <rect id="Rectángulo_193" data-name="Rectángulo 193" width="4.926" height="4.926" transform="translate(150.091 153.574) rotate(-44.999)" fill="#fecb2f"/>
      <rect id="Rectángulo_194" data-name="Rectángulo 194" width="4.675" height="4.675" transform="translate(136.446 139.752) rotate(-45)" fill="#fecb2f"/>
      <rect id="Rectángulo_195" data-name="Rectángulo 195" width="4.424" height="4.424" transform="translate(122.802 125.93) rotate(-45)" fill="#fecb2f"/>
      <rect id="Rectángulo_196" data-name="Rectángulo 196" width="4.174" height="4.174" transform="matrix(0.707, -0.707, 0.707, 0.707, 109.157, 112.108)" fill="#fecb2f"/>
      <rect id="Rectángulo_197" data-name="Rectángulo 197" width="3.923" height="3.923" transform="translate(95.513 98.286) rotate(-45)" fill="#fecb2f"/>
      <rect id="Rectángulo_198" data-name="Rectángulo 198" width="3.672" height="3.672" transform="matrix(0.707, -0.707, 0.707, 0.707, 81.868, 84.464)" fill="#fecb2f"/>
      <rect id="Rectángulo_199" data-name="Rectángulo 199" width="3.421" height="3.421" transform="translate(68.223 70.642) rotate(-45)" fill="#fecb2f"/>
      <rect id="Rectángulo_200" data-name="Rectángulo 200" width="3.17" height="3.17" transform="translate(54.579 56.82) rotate(-45.001)" fill="#fecb2f"/>
      <rect id="Rectángulo_201" data-name="Rectángulo 201" width="2.92" height="2.92" transform="translate(40.934 42.998) rotate(-45)" fill="#fecb2f"/>
      <rect id="Rectángulo_202" data-name="Rectángulo 202" width="2.669" height="2.669" transform="matrix(0.707, -0.707, 0.707, 0.707, 27.289, 29.176)" fill="#fecb2f"/>
      <rect id="Rectángulo_203" data-name="Rectángulo 203" width="2.418" height="2.418" transform="translate(13.645 15.354) rotate(-45)" fill="#fecb2f"/>
      <rect id="Rectángulo_204" data-name="Rectángulo 204" width="2.167" height="2.167" transform="matrix(0.707, -0.707, 0.707, 0.707, 0, 1.532)" fill="#fecb2f"/>
    </g>
    <g id="Grupo_69" data-name="Grupo 69" transform="translate(1250.988 5435.184)">
      <rect id="Rectángulo_205" data-name="Rectángulo 205" width="4.926" height="4.926" transform="translate(150.091 153.574) rotate(-44.999)" fill="#fecb2f"/>
      <rect id="Rectángulo_206" data-name="Rectángulo 206" width="4.675" height="4.675" transform="translate(136.447 139.752) rotate(-45)" fill="#fecb2f"/>
      <rect id="Rectángulo_207" data-name="Rectángulo 207" width="4.424" height="4.424" transform="translate(122.802 125.93) rotate(-44.999)" fill="#fecb2f"/>
      <rect id="Rectángulo_208" data-name="Rectángulo 208" width="4.174" height="4.174" transform="translate(109.157 112.108) rotate(-45)" fill="#fecb2f"/>
      <rect id="Rectángulo_209" data-name="Rectángulo 209" width="3.923" height="3.923" transform="translate(95.513 98.286) rotate(-45)" fill="#fecb2f"/>
      <rect id="Rectángulo_210" data-name="Rectángulo 210" width="3.672" height="3.672" transform="translate(81.868 84.464) rotate(-45)" fill="#fecb2f"/>
      <rect id="Rectángulo_211" data-name="Rectángulo 211" width="3.421" height="3.421" transform="translate(68.223 70.642) rotate(-45)" fill="#fecb2f"/>
      <rect id="Rectángulo_212" data-name="Rectángulo 212" width="3.17" height="3.17" transform="translate(54.579 56.82) rotate(-45)" fill="#fecb2f"/>
      <rect id="Rectángulo_213" data-name="Rectángulo 213" width="2.92" height="2.92" transform="translate(40.934 42.998) rotate(-45)" fill="#fecb2f"/>
      <rect id="Rectángulo_214" data-name="Rectángulo 214" width="2.669" height="2.669" transform="translate(27.289 29.176) rotate(-45)" fill="#fecb2f"/>
      <rect id="Rectángulo_215" data-name="Rectángulo 215" width="2.418" height="2.418" transform="translate(13.645 15.354) rotate(-45)" fill="#fecb2f"/>
      <rect id="Rectángulo_216" data-name="Rectángulo 216" width="2.167" height="2.167" transform="matrix(0.707, -0.707, 0.707, 0.707, 0, 1.532)" fill="#fecb2f"/>
    </g>
    <g id="Grupo_71" data-name="Grupo 71" transform="translate(1239.789 5446.382)">
      <rect id="Rectángulo_217" data-name="Rectángulo 217" width="4.926" height="4.926" transform="translate(150.091 153.574) rotate(-44.999)" fill="#fecb2f"/>
      <rect id="Rectángulo_218" data-name="Rectángulo 218" width="4.675" height="4.675" transform="translate(136.447 139.752) rotate(-44.999)" fill="#fecb2f"/>
      <rect id="Rectángulo_219" data-name="Rectángulo 219" width="4.424" height="4.424" transform="translate(122.802 125.93) rotate(-44.999)" fill="#fecb2f"/>
      <rect id="Rectángulo_220" data-name="Rectángulo 220" width="4.174" height="4.174" transform="matrix(0.707, -0.707, 0.707, 0.707, 109.157, 112.108)" fill="#fecb2f"/>
      <rect id="Rectángulo_221" data-name="Rectángulo 221" width="3.923" height="3.923" transform="translate(95.513 98.286) rotate(-44.999)" fill="#fecb2f"/>
      <rect id="Rectángulo_222" data-name="Rectángulo 222" width="3.672" height="3.672" transform="matrix(0.707, -0.707, 0.707, 0.707, 81.868, 84.464)" fill="#fecb2f"/>
      <rect id="Rectángulo_223" data-name="Rectángulo 223" width="3.421" height="3.421" transform="matrix(0.707, -0.707, 0.707, 0.707, 68.223, 70.642)" fill="#fecb2f"/>
      <rect id="Rectángulo_224" data-name="Rectángulo 224" width="3.17" height="3.17" transform="translate(54.579 56.82) rotate(-44.999)" fill="#fecb2f"/>
      <rect id="Rectángulo_225" data-name="Rectángulo 225" width="2.92" height="2.92" transform="translate(40.934 42.998) rotate(-45)" fill="#fecb2f"/>
      <rect id="Rectángulo_226" data-name="Rectángulo 226" width="2.669" height="2.669" transform="translate(27.289 29.176) rotate(-44.998)" fill="#fecb2f"/>
      <rect id="Rectángulo_227" data-name="Rectángulo 227" width="2.418" height="2.418" transform="translate(13.645 15.354) rotate(-45)" fill="#fecb2f"/>
      <rect id="Rectángulo_228" data-name="Rectángulo 228" width="2.167" height="2.167" transform="matrix(0.707, -0.707, 0.707, 0.707, 0, 1.532)" fill="#fecb2f"/>
    </g>
    <g id="Grupo_73" data-name="Grupo 73" transform="translate(1228.59 5457.581)">
      <rect id="Rectángulo_229" data-name="Rectángulo 229" width="4.926" height="4.926" transform="translate(150.091 153.574) rotate(-45.001)" fill="#fecb2f"/>
      <rect id="Rectángulo_230" data-name="Rectángulo 230" width="4.675" height="4.675" transform="translate(136.446 139.752) rotate(-45.001)" fill="#fecb2f"/>
      <rect id="Rectángulo_231" data-name="Rectángulo 231" width="4.424" height="4.424" transform="translate(122.802 125.93) rotate(-45)" fill="#fecb2f"/>
      <rect id="Rectángulo_232" data-name="Rectángulo 232" width="4.174" height="4.174" transform="matrix(0.707, -0.707, 0.707, 0.707, 109.157, 112.108)" fill="#fecb2f"/>
      <rect id="Rectángulo_233" data-name="Rectángulo 233" width="3.923" height="3.923" transform="translate(95.513 98.286) rotate(-45)" fill="#fecb2f"/>
      <rect id="Rectángulo_234" data-name="Rectángulo 234" width="3.672" height="3.672" transform="matrix(0.707, -0.707, 0.707, 0.707, 81.868, 84.464)" fill="#fecb2f"/>
      <rect id="Rectángulo_235" data-name="Rectángulo 235" width="3.421" height="3.421" transform="translate(68.223 70.642) rotate(-45)" fill="#fecb2f"/>
      <rect id="Rectángulo_236" data-name="Rectángulo 236" width="3.17" height="3.17" transform="translate(54.579 56.82) rotate(-45.001)" fill="#fecb2f"/>
      <rect id="Rectángulo_237" data-name="Rectángulo 237" width="2.92" height="2.92" transform="translate(40.934 42.998) rotate(-45)" fill="#fecb2f"/>
      <rect id="Rectángulo_238" data-name="Rectángulo 238" width="2.669" height="2.669" transform="translate(27.289 29.176) rotate(-45)" fill="#fecb2f"/>
      <rect id="Rectángulo_239" data-name="Rectángulo 239" width="2.418" height="2.418" transform="translate(13.645 15.354) rotate(-45)" fill="#fecb2f"/>
      <rect id="Rectángulo_240" data-name="Rectángulo 240" width="2.167" height="2.167" transform="translate(0 1.532) rotate(-44.998)" fill="#fecb2f"/>
    </g>
    <g id="Grupo_75" data-name="Grupo 75" transform="translate(1217.392 5468.78)">
      <rect id="Rectángulo_241" data-name="Rectángulo 241" width="4.926" height="4.926" transform="translate(150.091 153.574) rotate(-45.001)" fill="#fecb2f"/>
      <rect id="Rectángulo_242" data-name="Rectángulo 242" width="4.675" height="4.675" transform="translate(136.446 139.752) rotate(-45.001)" fill="#fecb2f"/>
      <rect id="Rectángulo_243" data-name="Rectángulo 243" width="4.424" height="4.424" transform="translate(122.802 125.93) rotate(-45)" fill="#fecb2f"/>
      <rect id="Rectángulo_244" data-name="Rectángulo 244" width="4.174" height="4.174" transform="matrix(0.707, -0.707, 0.707, 0.707, 109.157, 112.108)" fill="#fecb2f"/>
      <rect id="Rectángulo_245" data-name="Rectángulo 245" width="3.923" height="3.923" transform="translate(95.513 98.286) rotate(-45)" fill="#fecb2f"/>
      <rect id="Rectángulo_246" data-name="Rectángulo 246" width="3.672" height="3.672" transform="translate(81.868 84.464) rotate(-45.001)" fill="#fecb2f"/>
      <rect id="Rectángulo_247" data-name="Rectángulo 247" width="3.421" height="3.421" transform="translate(68.223 70.642) rotate(-45)" fill="#fecb2f"/>
      <rect id="Rectángulo_248" data-name="Rectángulo 248" width="3.17" height="3.17" transform="translate(54.579 56.82) rotate(-45.001)" fill="#fecb2f"/>
      <rect id="Rectángulo_249" data-name="Rectángulo 249" width="2.919" height="2.919" transform="translate(40.934 42.998) rotate(-45)" fill="#fecb2f"/>
      <rect id="Rectángulo_250" data-name="Rectángulo 250" width="2.669" height="2.669" transform="matrix(0.707, -0.707, 0.707, 0.707, 27.289, 29.176)" fill="#fecb2f"/>
      <rect id="Rectángulo_251" data-name="Rectángulo 251" width="2.418" height="2.418" transform="translate(13.645 15.354) rotate(-45)" fill="#fecb2f"/>
      <rect id="Rectángulo_252" data-name="Rectángulo 252" width="2.167" height="2.167" transform="matrix(0.707, -0.707, 0.707, 0.707, 0, 1.532)" fill="#fecb2f"/>
    </g>
    <g id="Grupo_77" data-name="Grupo 77" transform="translate(1206.192 5479.979)">
      <rect id="Rectángulo_253" data-name="Rectángulo 253" width="4.926" height="4.926" transform="translate(150.091 153.574) rotate(-45)" fill="#fecb2f"/>
      <rect id="Rectángulo_254" data-name="Rectángulo 254" width="4.675" height="4.675" transform="translate(136.447 139.752) rotate(-45)" fill="#fecb2f"/>
      <rect id="Rectángulo_255" data-name="Rectángulo 255" width="4.424" height="4.424" transform="translate(122.802 125.93) rotate(-45.001)" fill="#fecb2f"/>
      <rect id="Rectángulo_256" data-name="Rectángulo 256" width="4.174" height="4.174" transform="matrix(0.707, -0.707, 0.707, 0.707, 109.157, 112.108)" fill="#fecb2f"/>
      <rect id="Rectángulo_257" data-name="Rectángulo 257" width="3.923" height="3.923" transform="matrix(0.707, -0.707, 0.707, 0.707, 95.513, 98.286)" fill="#fecb2f"/>
      <rect id="Rectángulo_258" data-name="Rectángulo 258" width="3.672" height="3.672" transform="matrix(0.707, -0.707, 0.707, 0.707, 81.868, 84.464)" fill="#fecb2f"/>
      <rect id="Rectángulo_259" data-name="Rectángulo 259" width="3.421" height="3.421" transform="translate(68.223 70.642) rotate(-45)" fill="#fecb2f"/>
      <rect id="Rectángulo_260" data-name="Rectángulo 260" width="3.17" height="3.17" transform="translate(54.579 56.82) rotate(-45.001)" fill="#fecb2f"/>
      <rect id="Rectángulo_261" data-name="Rectángulo 261" width="2.92" height="2.92" transform="translate(40.934 42.998) rotate(-45)" fill="#fecb2f"/>
      <rect id="Rectángulo_262" data-name="Rectángulo 262" width="2.669" height="2.669" transform="matrix(0.707, -0.707, 0.707, 0.707, 27.289, 29.176)" fill="#fecb2f"/>
      <rect id="Rectángulo_263" data-name="Rectángulo 263" width="2.418" height="2.418" transform="translate(13.645 15.354) rotate(-45)" fill="#fecb2f"/>
      <rect id="Rectángulo_264" data-name="Rectángulo 264" width="2.167" height="2.167" transform="matrix(0.707, -0.707, 0.707, 0.707, 0, 1.532)" fill="#fecb2f"/>
    </g>
    <g id="Grupo_79" data-name="Grupo 79" transform="translate(1194.994 5491.178)">
      <rect id="Rectángulo_265" data-name="Rectángulo 265" width="4.926" height="4.926" transform="translate(150.091 153.574) rotate(-44.999)" fill="#fecb2f"/>
      <rect id="Rectángulo_266" data-name="Rectángulo 266" width="4.675" height="4.675" transform="translate(136.446 139.752) rotate(-45)" fill="#fecb2f"/>
      <rect id="Rectángulo_267" data-name="Rectángulo 267" width="4.424" height="4.424" transform="translate(122.802 125.93) rotate(-44.999)" fill="#fecb2f"/>
      <rect id="Rectángulo_268" data-name="Rectángulo 268" width="4.174" height="4.174" transform="translate(109.157 112.108) rotate(-45)" fill="#fecb2f"/>
      <rect id="Rectángulo_269" data-name="Rectángulo 269" width="3.923" height="3.923" transform="translate(95.512 98.286) rotate(-44.999)" fill="#fecb2f"/>
      <rect id="Rectángulo_270" data-name="Rectángulo 270" width="3.672" height="3.672" transform="matrix(0.707, -0.707, 0.707, 0.707, 81.868, 84.464)" fill="#fecb2f"/>
      <rect id="Rectángulo_271" data-name="Rectángulo 271" width="3.421" height="3.421" transform="matrix(0.707, -0.707, 0.707, 0.707, 68.223, 70.642)" fill="#fecb2f"/>
      <rect id="Rectángulo_272" data-name="Rectángulo 272" width="3.17" height="3.17" transform="translate(54.579 56.82) rotate(-45.001)" fill="#fecb2f"/>
      <rect id="Rectángulo_273" data-name="Rectángulo 273" width="2.92" height="2.92" transform="translate(40.934 42.998) rotate(-45)" fill="#fecb2f"/>
      <rect id="Rectángulo_274" data-name="Rectángulo 274" width="2.669" height="2.669" transform="translate(27.289 29.176) rotate(-45.002)" fill="#fecb2f"/>
      <rect id="Rectángulo_275" data-name="Rectángulo 275" width="2.418" height="2.418" transform="translate(13.645 15.354) rotate(-45)" fill="#fecb2f"/>
      <rect id="Rectángulo_276" data-name="Rectángulo 276" width="2.167" height="2.167" transform="matrix(0.707, -0.707, 0.707, 0.707, 0, 1.532)" fill="#fecb2f"/>
    </g>
    <g id="Grupo_81" data-name="Grupo 81" transform="translate(1183.795 5502.376)">
      <rect id="Rectángulo_277" data-name="Rectángulo 277" width="4.926" height="4.926" transform="translate(150.091 153.574) rotate(-44.999)" fill="#fecb2f"/>
      <rect id="Rectángulo_278" data-name="Rectángulo 278" width="4.675" height="4.675" transform="translate(136.446 139.752) rotate(-45)" fill="#fecb2f"/>
      <rect id="Rectángulo_279" data-name="Rectángulo 279" width="4.424" height="4.424" transform="translate(122.802 125.93) rotate(-44.999)" fill="#fecb2f"/>
      <rect id="Rectángulo_280" data-name="Rectángulo 280" width="4.174" height="4.174" transform="translate(109.157 112.108) rotate(-45)" fill="#fecb2f"/>
      <rect id="Rectángulo_281" data-name="Rectángulo 281" width="3.923" height="3.923" transform="translate(95.513 98.286) rotate(-44.999)" fill="#fecb2f"/>
      <rect id="Rectángulo_282" data-name="Rectángulo 282" width="3.672" height="3.672" transform="translate(81.868 84.464) rotate(-45)" fill="#fecb2f"/>
      <rect id="Rectángulo_283" data-name="Rectángulo 283" width="3.421" height="3.421" transform="matrix(0.707, -0.707, 0.707, 0.707, 68.223, 70.642)" fill="#fecb2f"/>
      <rect id="Rectángulo_284" data-name="Rectángulo 284" width="3.17" height="3.17" transform="translate(54.579 56.82) rotate(-45)" fill="#fecb2f"/>
      <rect id="Rectángulo_285" data-name="Rectángulo 285" width="2.92" height="2.92" transform="translate(40.934 42.998) rotate(-45)" fill="#fecb2f"/>
      <rect id="Rectángulo_286" data-name="Rectángulo 286" width="2.669" height="2.669" transform="translate(27.289 29.176) rotate(-45)" fill="#fecb2f"/>
      <rect id="Rectángulo_287" data-name="Rectángulo 287" width="2.418" height="2.418" transform="translate(13.645 15.354) rotate(-45)" fill="#fecb2f"/>
      <rect id="Rectángulo_288" data-name="Rectángulo 288" width="2.167" height="2.167" transform="matrix(0.707, -0.707, 0.707, 0.707, 0, 1.532)" fill="#fecb2f"/>
    </g>
    <g id="Grupo_83" data-name="Grupo 83" transform="translate(1172.596 5513.575)">
      <rect id="Rectángulo_289" data-name="Rectángulo 289" width="4.926" height="4.926" transform="translate(150.091 153.574) rotate(-44.999)" fill="#fecb2f"/>
      <rect id="Rectángulo_290" data-name="Rectángulo 290" width="4.675" height="4.675" transform="translate(136.446 139.752) rotate(-44.999)" fill="#fecb2f"/>
      <rect id="Rectángulo_291" data-name="Rectángulo 291" width="4.424" height="4.424" transform="translate(122.802 125.93) rotate(-44.999)" fill="#fecb2f"/>
      <rect id="Rectángulo_292" data-name="Rectángulo 292" width="4.174" height="4.174" transform="matrix(0.707, -0.707, 0.707, 0.707, 109.157, 112.108)" fill="#fecb2f"/>
      <rect id="Rectángulo_293" data-name="Rectángulo 293" width="3.923" height="3.923" transform="translate(95.513 98.286) rotate(-44.999)" fill="#fecb2f"/>
      <rect id="Rectángulo_294" data-name="Rectángulo 294" width="3.672" height="3.672" transform="matrix(0.707, -0.707, 0.707, 0.707, 81.868, 84.464)" fill="#fecb2f"/>
      <rect id="Rectángulo_295" data-name="Rectángulo 295" width="3.421" height="3.421" transform="matrix(0.707, -0.707, 0.707, 0.707, 68.223, 70.642)" fill="#fecb2f"/>
      <rect id="Rectángulo_296" data-name="Rectángulo 296" width="3.17" height="3.17" transform="translate(54.579 56.82) rotate(-44.999)" fill="#fecb2f"/>
      <rect id="Rectángulo_297" data-name="Rectángulo 297" width="2.92" height="2.92" transform="matrix(0.707, -0.707, 0.707, 0.707, 40.934, 42.998)" fill="#fecb2f"/>
      <rect id="Rectángulo_298" data-name="Rectángulo 298" width="2.669" height="2.669" transform="translate(27.289 29.176) rotate(-44.998)" fill="#fecb2f"/>
      <rect id="Rectángulo_299" data-name="Rectángulo 299" width="2.418" height="2.418" transform="translate(13.645 15.354) rotate(-44.998)" fill="#fecb2f"/>
      <rect id="Rectángulo_300" data-name="Rectángulo 300" width="2.167" height="2.167" transform="translate(0 1.532) rotate(-44.998)" fill="#fecb2f"/>
    </g>
    <g id="Grupo_85" data-name="Grupo 85" transform="translate(1161.397 5524.774)">
      <rect id="Rectángulo_301" data-name="Rectángulo 301" width="4.926" height="4.926" transform="matrix(0.707, -0.707, 0.707, 0.707, 150.091, 153.574)" fill="#fecb2f"/>
      <rect id="Rectángulo_302" data-name="Rectángulo 302" width="4.675" height="4.675" transform="translate(136.446 139.752) rotate(-45.001)" fill="#fecb2f"/>
      <rect id="Rectángulo_303" data-name="Rectángulo 303" width="4.424" height="4.424" transform="translate(122.802 125.93) rotate(-45.001)" fill="#fecb2f"/>
      <rect id="Rectángulo_304" data-name="Rectángulo 304" width="4.174" height="4.174" transform="matrix(0.707, -0.707, 0.707, 0.707, 109.157, 112.108)" fill="#fecb2f"/>
      <rect id="Rectángulo_305" data-name="Rectángulo 305" width="3.923" height="3.923" transform="translate(95.513 98.286) rotate(-45)" fill="#fecb2f"/>
      <rect id="Rectángulo_306" data-name="Rectángulo 306" width="3.672" height="3.672" transform="translate(81.868 84.464) rotate(-45.001)" fill="#fecb2f"/>
      <rect id="Rectángulo_307" data-name="Rectángulo 307" width="3.421" height="3.421" transform="translate(68.223 70.642) rotate(-45)" fill="#fecb2f"/>
      <rect id="Rectángulo_308" data-name="Rectángulo 308" width="3.17" height="3.17" transform="translate(54.579 56.82) rotate(-45.001)" fill="#fecb2f"/>
      <rect id="Rectángulo_309" data-name="Rectángulo 309" width="2.919" height="2.919" transform="translate(40.934 42.998) rotate(-45)" fill="#fecb2f"/>
      <rect id="Rectángulo_310" data-name="Rectángulo 310" width="2.669" height="2.669" transform="translate(27.289 29.176) rotate(-45)" fill="#fecb2f"/>
      <rect id="Rectángulo_311" data-name="Rectángulo 311" width="2.418" height="2.418" transform="translate(13.645 15.354) rotate(-45)" fill="#fecb2f"/>
      <rect id="Rectángulo_312" data-name="Rectángulo 312" width="2.167" height="2.167" transform="translate(0 1.532) rotate(-45)" fill="#fecb2f"/>
    </g>
    <g id="Grupo_87" data-name="Grupo 87" transform="translate(1150.199 5535.973)">
      <rect id="Rectángulo_313" data-name="Rectángulo 313" width="4.926" height="4.926" transform="translate(150.091 153.574) rotate(-45)" fill="#fecb2f"/>
      <rect id="Rectángulo_314" data-name="Rectángulo 314" width="4.675" height="4.675" transform="translate(136.446 139.752) rotate(-45)" fill="#fecb2f"/>
      <rect id="Rectángulo_315" data-name="Rectángulo 315" width="4.424" height="4.424" transform="translate(122.802 125.93) rotate(-45)" fill="#fecb2f"/>
      <rect id="Rectángulo_316" data-name="Rectángulo 316" width="4.174" height="4.174" transform="matrix(0.707, -0.707, 0.707, 0.707, 109.157, 112.108)" fill="#fecb2f"/>
      <rect id="Rectángulo_317" data-name="Rectángulo 317" width="3.923" height="3.923" transform="translate(95.512 98.286) rotate(-45.001)" fill="#fecb2f"/>
      <rect id="Rectángulo_318" data-name="Rectángulo 318" width="3.672" height="3.672" transform="matrix(0.707, -0.707, 0.707, 0.707, 81.868, 84.464)" fill="#fecb2f"/>
      <rect id="Rectángulo_319" data-name="Rectángulo 319" width="3.421" height="3.421" transform="translate(68.223 70.642) rotate(-45)" fill="#fecb2f"/>
      <rect id="Rectángulo_320" data-name="Rectángulo 320" width="3.17" height="3.17" transform="translate(54.578 56.82) rotate(-45.001)" fill="#fecb2f"/>
      <rect id="Rectángulo_321" data-name="Rectángulo 321" width="2.919" height="2.919" transform="translate(40.934 42.998) rotate(-45)" fill="#fecb2f"/>
      <rect id="Rectángulo_322" data-name="Rectángulo 322" width="2.669" height="2.669" transform="matrix(0.707, -0.707, 0.707, 0.707, 27.289, 29.176)" fill="#fecb2f"/>
      <rect id="Rectángulo_323" data-name="Rectángulo 323" width="2.418" height="2.418" transform="translate(13.645 15.354) rotate(-45)" fill="#fecb2f"/>
      <rect id="Rectángulo_324" data-name="Rectángulo 324" width="2.167" height="2.167" transform="matrix(0.707, -0.707, 0.707, 0.707, 0, 1.532)" fill="#fecb2f"/>
    </g>
    <g id="Grupo_89" data-name="Grupo 89" transform="translate(1139 5547.171)">
      <rect id="Rectángulo_325" data-name="Rectángulo 325" width="4.926" height="4.926" transform="translate(150.091 153.574) rotate(-45)" fill="#fecb2f"/>
      <rect id="Rectángulo_326" data-name="Rectángulo 326" width="4.675" height="4.675" transform="translate(136.447 139.752) rotate(-45)" fill="#fecb2f"/>
      <rect id="Rectángulo_327" data-name="Rectángulo 327" width="4.424" height="4.424" transform="translate(122.802 125.93) rotate(-45)" fill="#fecb2f"/>
      <rect id="Rectángulo_328" data-name="Rectángulo 328" width="4.174" height="4.174" transform="translate(109.157 112.108) rotate(-45)" fill="#fecb2f"/>
      <rect id="Rectángulo_329" data-name="Rectángulo 329" width="3.923" height="3.923" transform="translate(95.513 98.286) rotate(-45)" fill="#fecb2f"/>
      <rect id="Rectángulo_330" data-name="Rectángulo 330" width="3.672" height="3.672" transform="translate(81.868 84.464) rotate(-45)" fill="#fecb2f"/>
      <rect id="Rectángulo_331" data-name="Rectángulo 331" width="3.421" height="3.421" transform="matrix(0.707, -0.707, 0.707, 0.707, 68.223, 70.642)" fill="#fecb2f"/>
      <rect id="Rectángulo_332" data-name="Rectángulo 332" width="3.17" height="3.17" transform="translate(54.579 56.82) rotate(-45.001)" fill="#fecb2f"/>
      <rect id="Rectángulo_333" data-name="Rectángulo 333" width="2.92" height="2.92" transform="translate(40.934 42.998) rotate(-45.002)" fill="#fecb2f"/>
      <rect id="Rectángulo_334" data-name="Rectángulo 334" width="2.669" height="2.669" transform="translate(27.289 29.176) rotate(-45.002)" fill="#fecb2f"/>
      <rect id="Rectángulo_335" data-name="Rectángulo 335" width="2.418" height="2.418" transform="matrix(0.707, -0.707, 0.707, 0.707, 13.645, 15.354)" fill="#fecb2f"/>
      <rect id="Rectángulo_336" data-name="Rectángulo 336" width="2.167" height="2.167" transform="matrix(0.707, -0.707, 0.707, 0.707, 0, 1.532)" fill="#fecb2f"/>
    </g>
    <path id="Trazado_1" data-name="Trazado 1" d="M99.814-75.2-45.679,70.293q1.01,6.24,2.614,12.265L112.079-72.585Q106.058-74.186,99.814-75.2Z" transform="translate(289.835 5616.415)" fill="none" stroke="#f6cd53" stroke-miterlimit="10" stroke-width="1.078"/>
    <path id="Trazado_2" data-name="Trazado 2" d="M111.948-72.715-43.2,82.428q1.533,5.764,3.574,11.306L123.255-69.141Q117.72-71.187,111.948-72.715Z" transform="translate(289.966 5616.545)" fill="none" stroke="#f6cd53" stroke-miterlimit="10" stroke-width="1.078"/>
    <path id="Trazado_3" data-name="Trazado 3" d="M159.586-48.491-18.971,130.066c2.263,2.688,4.623,5.291,7.1,7.781L167.367-41.391C164.877-43.867,162.274-46.228,159.586-48.491Z" transform="translate(291.236 5617.815)" fill="none" stroke="#f6cd53" stroke-miterlimit="10" stroke-width="1.078"/>
    <path id="Trazado_4" data-name="Trazado 4" d="M151.508-54.647-25.128,121.988q3.072,4.335,6.48,8.4L159.909-48.168Q155.854-51.583,151.508-54.647Z" transform="translate(290.914 5617.493)" fill="none" stroke="#f6cd53" stroke-miterlimit="10" stroke-width="1.078"/>
    <path id="Trazado_5" data-name="Trazado 5" d="M133.318-65.12-35.6,103.8c1.582,3.322,3.319,6.553,5.174,9.707L143.025-59.945C139.87-61.8,136.639-63.538,133.318-65.12Z" transform="translate(290.364 5616.943)" fill="none" stroke="#f6cd53" stroke-miterlimit="10" stroke-width="1.078"/>
    <path id="Trazado_6" data-name="Trazado 6" d="M142.767-60.2-30.684,113.247q2.734,4.649,5.847,9.033L151.8-54.356Q147.415-57.464,142.767-60.2Z" transform="translate(290.622 5617.201)" fill="none" stroke="#f6cd53" stroke-miterlimit="10" stroke-width="1.078"/>
    <path id="Trazado_7" data-name="Trazado 7" d="M123.077-69.319-39.8,93.557q1.978,5.35,4.419,10.461L133.538-64.9Q128.428-67.333,123.077-69.319Z" transform="translate(290.144 5616.723)" fill="none" stroke="#f6cd53" stroke-miterlimit="10" stroke-width="1.078"/>
    <path id="Trazado_8" data-name="Trazado 8" d="M-38.97,3.358,32.877-68.489A127.1,127.1,0,0,0-38.97,3.358Z" transform="translate(290.188 5616.767)" fill="none" stroke="#f6cd53" stroke-miterlimit="10" stroke-width="1.078"/>
    <path id="Trazado_9" data-name="Trazado 9" d="M33.188-68.179-38.66,3.669a125.636,125.636,0,0,0-6.225,21.106l99.18-99.18A125.686,125.686,0,0,0,33.188-68.179Z" transform="translate(289.877 5616.456)" fill="none" stroke="#f6cd53" stroke-miterlimit="10" stroke-width="1.078"/>
    <path id="Trazado_10" data-name="Trazado 10" d="M86.462-76.583-47.064,56.942a127.073,127.073,0,0,0,1.458,13.424L99.886-75.126A127.1,127.1,0,0,0,86.462-76.583Z" transform="translate(289.763 5616.342)" fill="none" stroke="#f6cd53" stroke-miterlimit="10" stroke-width="1.078"/>
    <path id="Trazado_11" data-name="Trazado 11" d="M79.5-76.773c-2.683,0-5.339.112-7.982.276L-46.977,42c-.164,2.642-.276,5.3-.276,7.982,0,2.341.074,4.664.2,6.975L86.472-76.573C84.162-76.7,81.838-76.773,79.5-76.773Z" transform="translate(289.753 5616.332)" fill="none" stroke="#f6cd53" stroke-miterlimit="10" stroke-width="1.078"/>
    <path id="Trazado_12" data-name="Trazado 12" d="M54.405-74.295l-99.18,99.18a126.8,126.8,0,0,0-2.216,17.1L71.5-76.511A126.979,126.979,0,0,0,54.405-74.295Z" transform="translate(289.767 5616.346)" fill="none" stroke="#f6cd53" stroke-miterlimit="10" stroke-width="1.078"/>
    <path id="Trazado_13" data-name="Trazado 13" d="M199.174,23.422,52.941,169.654A126.874,126.874,0,0,0,66.279,171.2L200.717,36.76A126.8,126.8,0,0,0,199.174,23.422Z" transform="translate(295.008 5621.587)" fill="none" stroke="#f6cd53" stroke-miterlimit="10" stroke-width="1.078"/>
    <path id="Trazado_14" data-name="Trazado 14" d="M200.327,44.058c0-2.677-.112-5.327-.275-7.963L65.614,170.533c2.636.164,5.286.275,7.963.275,2.293,0,4.569-.068,6.831-.188L200.139,50.889C200.259,48.626,200.327,46.35,200.327,44.058Z" transform="translate(295.673 5622.252)" fill="none" stroke="#f6cd53" stroke-miterlimit="10" stroke-width="1.078"/>
    <path id="Trazado_15" data-name="Trazado 15" d="M199.4,50.152,79.671,169.882a126.81,126.81,0,0,0,16.953-2.072L197.329,67.1A127.015,127.015,0,0,0,199.4,50.152Z" transform="translate(296.41 5622.989)" fill="none" stroke="#f6cd53" stroke-miterlimit="10" stroke-width="1.078"/>
    <path id="Trazado_16" data-name="Trazado 16" d="M196.485,66.26,95.779,166.965a125.732,125.732,0,0,0,20.646-5.765l74.294-74.293A125.967,125.967,0,0,0,196.485,66.26Z" transform="translate(297.255 5623.834)" fill="none" stroke="#f6cd53" stroke-miterlimit="10" stroke-width="1.078"/>
    <path id="Trazado_17" data-name="Trazado 17" d="M189.69,85.877,115.4,160.17A127.108,127.108,0,0,0,189.69,85.877Z" transform="translate(298.284 5624.863)" fill="none" stroke="#f6cd53" stroke-miterlimit="10" stroke-width="1.078"/>
    <path id="Trazado_18" data-name="Trazado 18" d="M197.093,11.837,41.357,167.574q5.985,1.636,12.192,2.688L199.782,24.03Q198.732,17.825,197.093,11.837Z" transform="translate(294.4 5620.979)" fill="none" stroke="#f6cd53" stroke-miterlimit="10" stroke-width="1.078"/>
    <path id="Trazado_19" data-name="Trazado 19" d="M179.881-26.455,3.065,150.36c2.907,2.086,5.9,4.062,8.979,5.9L185.782-17.476C183.943-20.559,181.966-23.548,179.881-26.455Z" transform="translate(292.392 5618.971)" fill="none" stroke="#f6cd53" stroke-miterlimit="10" stroke-width="1.078"/>
    <path id="Trazado_20" data-name="Trazado 20" d="M173.765-34.388-4.869,144.246q4.034,3.435,8.35,6.53L180.3-26.039Q177.2-30.352,173.765-34.388Z" transform="translate(291.976 5618.555)" fill="none" stroke="#f6cd53" stroke-miterlimit="10" stroke-width="1.078"/>
    <path id="Trazado_21" data-name="Trazado 21" d="M194.014,1.157,30.676,164.494q5.5,2.078,11.241,3.64L197.653,12.4Q196.087,6.665,194.014,1.157Z" transform="translate(293.84 5620.419)" fill="none" stroke="#f6cd53" stroke-miterlimit="10" stroke-width="1.078"/>
    <path id="Trazado_22" data-name="Trazado 22" d="M167.013-41.745-12.225,137.493c2.474,2.49,5.069,4.86,7.742,7.139L174.151-34C171.872-36.676,169.5-39.27,167.013-41.745Z" transform="translate(291.59 5618.169)" fill="none" stroke="#f6cd53" stroke-miterlimit="10" stroke-width="1.078"/>
    <path id="Trazado_23" data-name="Trazado 23" d="M190.075-8.746l-169.3,169.3c3.39,1.642,6.872,3.118,10.422,4.458L194.533,1.676C193.193-1.875,191.716-5.357,190.075-8.746Z" transform="translate(293.321 5619.9)" fill="none" stroke="#f6cd53" stroke-miterlimit="10" stroke-width="1.078"/>
    <path id="Trazado_24" data-name="Trazado 24" d="M185.334-17.923,11.6,155.814c3.136,1.871,6.353,3.623,9.657,5.222l169.3-169.3C188.957-11.57,187.2-14.786,185.334-17.923Z" transform="translate(292.839 5619.418)" fill="none" stroke="#f6cd53" stroke-miterlimit="10" stroke-width="1.078"/>
    <g transform="matrix(1, 0, 0, 1, 137, 5409.61)" filter="url(#Trazado_673748)">
      <g id="Trazado_673748-2" data-name="Trazado 673748" transform="translate(43 303.84)" fill="#21cbae">
        <path d="M 222 69.5 L 17 69.5 C 12.85981273651123 69.5 8.967406272888184 67.88771820068359 6.039843559265137 64.96015930175781 C 3.112281322479248 62.0325927734375 1.5 58.14018630981445 1.5 54 L 1.5 17 C 1.5 12.85981273651123 3.112281322479248 8.967406272888184 6.039843559265137 6.039843559265137 C 8.967406272888184 3.112281322479248 12.85981273651123 1.5 17 1.5 L 222 1.5 C 226.1401824951172 1.5 230.0325927734375 3.112281322479248 232.9601593017578 6.039843559265137 C 235.8877258300781 8.967406272888184 237.5 12.85981273651123 237.5 17 L 237.5 54 C 237.5 58.14018630981445 235.8877258300781 62.0325927734375 232.9601593017578 64.96015930175781 C 230.0325927734375 67.88771820068359 226.1401824951172 69.5 222 69.5 Z" stroke="none"/>
        <path d="M 17 3 C 13.26046752929688 3 9.744766235351562 4.456268310546875 7.100494384765625 7.100498199462891 C 4.456268310546875 9.744766235351562 3 13.26046752929688 3 17 L 3 54 C 3 57.73953247070312 4.456268310546875 61.25523376464844 7.100494384765625 63.89949798583984 C 9.744766235351562 66.54373168945312 13.26046752929688 68 17 68 L 222 68 C 225.7395324707031 68 229.2552337646484 66.54373168945312 231.8995056152344 63.89949798583984 C 234.5437316894531 61.25523376464844 236 57.73953247070312 236 54 L 236 17 C 236 13.26046752929688 234.5437316894531 9.744766235351562 231.8995056152344 7.100498199462891 C 229.2552337646484 4.456268310546875 225.7395324707031 3 222 3 L 17 3 M 17 0 L 222 0 C 231.3888397216797 0 239 7.611167907714844 239 17 L 239 54 C 239 63.38883209228516 231.3888397216797 71 222 71 L 17 71 C 7.611160278320312 71 0 63.38883209228516 0 54 L 0 17 C 0 7.611167907714844 7.611160278320312 0 17 0 Z" stroke="none" fill="#fff"/>
      </g>
    </g>
    <g transform="matrix(1, 0, 0, 1, 137, 5409.61)" filter="url(#Trazado_673749)">
      <g id="Trazado_673749-2" data-name="Trazado 673749" transform="translate(708 219.84)" fill="#21cbae">
        <path d="M 222 116.5 L 17 116.5 C 12.85981273651123 116.5 8.967406272888184 114.8877182006836 6.039843559265137 111.9601593017578 C 3.112281322479248 109.0325927734375 1.5 105.1401901245117 1.5 101 L 1.5 17 C 1.5 12.85981273651123 3.112281322479248 8.967406272888184 6.039843559265137 6.039843559265137 C 8.967406272888184 3.112281322479248 12.85981273651123 1.5 17 1.5 L 222 1.5 C 226.1401824951172 1.5 230.0325927734375 3.112281322479248 232.9601593017578 6.039843559265137 C 235.8877258300781 8.967406272888184 237.5 12.85981273651123 237.5 17 L 237.5 101 C 237.5 105.1401901245117 235.8877258300781 109.0325927734375 232.9601593017578 111.9601593017578 C 230.0325927734375 114.8877182006836 226.1401824951172 116.5 222 116.5 Z" stroke="none"/>
        <path d="M 17 3 C 13.26046752929688 3 9.744766235351562 4.456268310546875 7.100494384765625 7.100502014160156 C 4.456268310546875 9.744766235351562 3 13.26046752929688 3 17 L 3 101 C 3 104.7395324707031 4.456268310546875 108.2552337646484 7.100494384765625 110.8994979858398 C 9.744766235351562 113.5437316894531 13.26046752929688 115 17 115 L 222 115 C 225.7395324707031 115 229.2552337646484 113.5437316894531 231.8995056152344 110.8994979858398 C 234.5437316894531 108.2552337646484 236 104.7395324707031 236 101 L 236 17 C 236 13.26046752929688 234.5437316894531 9.744766235351562 231.8995056152344 7.100502014160156 C 229.2552337646484 4.456268310546875 225.7395324707031 3 222 3 L 17 3 M 17 0 L 222 0 C 231.3888397216797 0 239 7.611167907714844 239 17 L 239 101 C 239 110.3888320922852 231.3888397216797 118 222 118 L 17 118 C 7.611160278320312 118 0 110.3888320922852 0 101 L 0 17 C 0 7.611167907714844 7.611160278320312 0 17 0 Z" stroke="none" fill="#fff"/>
      </g>
    </g>
    <g transform="matrix(1, 0, 0, 1, 137, 5409.61)" filter="url(#Trazado_673750)">
      <g id="Trazado_673750-2" data-name="Trazado 673750" transform="translate(708 363.84)" fill="#21cbae">
        <path d="M 222 116.5 L 17 116.5 C 12.85981273651123 116.5 8.967406272888184 114.8877182006836 6.039843559265137 111.9601593017578 C 3.112281322479248 109.0325927734375 1.5 105.1401901245117 1.5 101 L 1.5 17 C 1.5 12.85981273651123 3.112281322479248 8.967406272888184 6.039843559265137 6.039843559265137 C 8.967406272888184 3.112281322479248 12.85981273651123 1.5 17 1.5 L 222 1.5 C 226.1401824951172 1.5 230.0325927734375 3.112281322479248 232.9601593017578 6.039843559265137 C 235.8877258300781 8.967406272888184 237.5 12.85981273651123 237.5 17 L 237.5 101 C 237.5 105.1401901245117 235.8877258300781 109.0325927734375 232.9601593017578 111.9601593017578 C 230.0325927734375 114.8877182006836 226.1401824951172 116.5 222 116.5 Z" stroke="none"/>
        <path d="M 17 3 C 13.26046752929688 3 9.744766235351562 4.456268310546875 7.100494384765625 7.100502014160156 C 4.456268310546875 9.744766235351562 3 13.26046752929688 3 17 L 3 101 C 3 104.7395324707031 4.456268310546875 108.2552337646484 7.100494384765625 110.8994979858398 C 9.744766235351562 113.5437316894531 13.26046752929688 115 17 115 L 222 115 C 225.7395324707031 115 229.2552337646484 113.5437316894531 231.8995056152344 110.8994979858398 C 234.5437316894531 108.2552337646484 236 104.7395324707031 236 101 L 236 17 C 236 13.26046752929688 234.5437316894531 9.744766235351562 231.8995056152344 7.100502014160156 C 229.2552337646484 4.456268310546875 225.7395324707031 3 222 3 L 17 3 M 17 0 L 222 0 C 231.3888397216797 0 239 7.611167907714844 239 17 L 239 101 C 239 110.3888320922852 231.3888397216797 118 222 118 L 17 118 C 7.611160278320312 118 0 110.3888320922852 0 101 L 0 17 C 0 7.611167907714844 7.611160278320312 0 17 0 Z" stroke="none" fill="#fff"/>
      </g>
    </g>
    <g transform="matrix(1, 0, 0, 1, 137, 5409.61)" filter="url(#Trazado_673751)">
      <g id="Trazado_673751-2" data-name="Trazado 673751" transform="translate(380 79.84)" fill="#21cbae">
        <path d="M 222 69.5 L 17 69.5 C 12.85981273651123 69.5 8.967406272888184 67.88771820068359 6.039843559265137 64.96015930175781 C 3.112281322479248 62.0325927734375 1.5 58.14018630981445 1.5 54 L 1.5 17 C 1.5 12.85981273651123 3.112281322479248 8.967406272888184 6.039843559265137 6.039843559265137 C 8.967406272888184 3.112281322479248 12.85981273651123 1.5 17 1.5 L 222 1.5 C 226.1401824951172 1.5 230.0325927734375 3.112281322479248 232.9601593017578 6.039843559265137 C 235.8877258300781 8.967406272888184 237.5 12.85981273651123 237.5 17 L 237.5 54 C 237.5 58.14018630981445 235.8877258300781 62.0325927734375 232.9601593017578 64.96015930175781 C 230.0325927734375 67.88771820068359 226.1401824951172 69.5 222 69.5 Z" stroke="none"/>
        <path d="M 17 3 C 13.26046752929688 3 9.744766235351562 4.456268310546875 7.100494384765625 7.100498199462891 C 4.456268310546875 9.744766235351562 3 13.26046752929688 3 17 L 3 54 C 3 57.73953247070312 4.456268310546875 61.25523376464844 7.100494384765625 63.89949798583984 C 9.744766235351562 66.54373168945312 13.26046752929688 68 17 68 L 222 68 C 225.7395324707031 68 229.2552337646484 66.54373168945312 231.8995056152344 63.89949798583984 C 234.5437316894531 61.25523376464844 236 57.73953247070312 236 54 L 236 17 C 236 13.26046752929688 234.5437316894531 9.744766235351562 231.8995056152344 7.100498199462891 C 229.2552337646484 4.456268310546875 225.7395324707031 3 222 3 L 17 3 M 17 0 L 222 0 C 231.3888397216797 0 239 7.611167907714844 239 17 L 239 54 C 239 63.38883209228516 231.3888397216797 71 222 71 L 17 71 C 7.611160278320312 71 0 63.38883209228516 0 54 L 0 17 C 0 7.611167907714844 7.611160278320312 0 17 0 Z" stroke="none" fill="#fff"/>
      </g>
    </g>
    <g transform="matrix(1, 0, 0, 1, 137, 5409.61)" filter="url(#Trazado_673752)">
      <g id="Trazado_673752-2" data-name="Trazado 673752" transform="translate(1044 243.84)" fill="#21cbae">
        <path d="M 222 69.5 L 17 69.5 C 12.85981273651123 69.5 8.967406272888184 67.88771820068359 6.039843559265137 64.96015930175781 C 3.112281322479248 62.0325927734375 1.5 58.14018630981445 1.5 54 L 1.5 17 C 1.5 12.85981273651123 3.112281322479248 8.967406272888184 6.039843559265137 6.039843559265137 C 8.967406272888184 3.112281322479248 12.85981273651123 1.5 17 1.5 L 222 1.5 C 226.1401824951172 1.5 230.0325927734375 3.112281322479248 232.9601593017578 6.039843559265137 C 235.8877258300781 8.967406272888184 237.5 12.85981273651123 237.5 17 L 237.5 54 C 237.5 58.14018630981445 235.8877258300781 62.0325927734375 232.9601593017578 64.96015930175781 C 230.0325927734375 67.88771820068359 226.1401824951172 69.5 222 69.5 Z" stroke="none"/>
        <path d="M 17 3 C 13.26046752929688 3 9.744766235351562 4.456268310546875 7.100494384765625 7.100498199462891 C 4.456268310546875 9.744766235351562 3 13.26046752929688 3 17 L 3 54 C 3 57.73953247070312 4.456268310546875 61.25523376464844 7.100494384765625 63.89949798583984 C 9.744766235351562 66.54373168945312 13.26046752929688 68 17 68 L 222 68 C 225.7395324707031 68 229.2552337646484 66.54373168945312 231.8995056152344 63.89949798583984 C 234.5437316894531 61.25523376464844 236 57.73953247070312 236 54 L 236 17 C 236 13.26046752929688 234.5437316894531 9.744766235351562 231.8995056152344 7.100498199462891 C 229.2552337646484 4.456268310546875 225.7395324707031 3 222 3 L 17 3 M 17 0 L 222 0 C 231.3888397216797 0 239 7.611167907714844 239 17 L 239 54 C 239 63.38883209228516 231.3888397216797 71 222 71 L 17 71 C 7.611160278320312 71 0 63.38883209228516 0 54 L 0 17 C 0 7.611167907714844 7.611160278320312 0 17 0 Z" stroke="none" fill="#fff"/>
      </g>
    </g>
    <g transform="matrix(1, 0, 0, 1, 137, 5409.61)" filter="url(#Trazado_673753)">
      <g id="Trazado_673753-2" data-name="Trazado 673753" transform="translate(1044 387.84)" fill="#21cbae">
        <path d="M 222 69.5 L 17 69.5 C 12.85981273651123 69.5 8.967406272888184 67.88771820068359 6.039843559265137 64.96015930175781 C 3.112281322479248 62.0325927734375 1.5 58.14018630981445 1.5 54 L 1.5 17 C 1.5 12.85981273651123 3.112281322479248 8.967406272888184 6.039843559265137 6.039843559265137 C 8.967406272888184 3.112281322479248 12.85981273651123 1.5 17 1.5 L 222 1.5 C 226.1401824951172 1.5 230.0325927734375 3.112281322479248 232.9601593017578 6.039843559265137 C 235.8877258300781 8.967406272888184 237.5 12.85981273651123 237.5 17 L 237.5 54 C 237.5 58.14018630981445 235.8877258300781 62.0325927734375 232.9601593017578 64.96015930175781 C 230.0325927734375 67.88771820068359 226.1401824951172 69.5 222 69.5 Z" stroke="none"/>
        <path d="M 17 3 C 13.26046752929688 3 9.744766235351562 4.456268310546875 7.100494384765625 7.100498199462891 C 4.456268310546875 9.744766235351562 3 13.26046752929688 3 17 L 3 54 C 3 57.73953247070312 4.456268310546875 61.25523376464844 7.100494384765625 63.89949798583984 C 9.744766235351562 66.54373168945312 13.26046752929688 68 17 68 L 222 68 C 225.7395324707031 68 229.2552337646484 66.54373168945312 231.8995056152344 63.89949798583984 C 234.5437316894531 61.25523376464844 236 57.73953247070312 236 54 L 236 17 C 236 13.26046752929688 234.5437316894531 9.744766235351562 231.8995056152344 7.100498199462891 C 229.2552337646484 4.456268310546875 225.7395324707031 3 222 3 L 17 3 M 17 0 L 222 0 C 231.3888397216797 0 239 7.611167907714844 239 17 L 239 54 C 239 63.38883209228516 231.3888397216797 71 222 71 L 17 71 C 7.611160278320312 71 0 63.38883209228516 0 54 L 0 17 C 0 7.611167907714844 7.611160278320312 0 17 0 Z" stroke="none" fill="#fff"/>
      </g>
    </g>
    <path id="Trazado_673754" data-name="Trazado 673754" d="M45.349,9.314q-.272-.167-.6-.33a5.42,5.42,0,0,0-.7-.286,6.3,6.3,0,0,0-.787-.2,4.572,4.572,0,0,0-.861-.079,2.293,2.293,0,0,0-.844.136,1.59,1.59,0,0,0-.545.338,1.252,1.252,0,0,0-.378.87,1.479,1.479,0,0,0,.092.532,1.534,1.534,0,0,0,.29.466,3.188,3.188,0,0,0,.519.457q.321.233.778.514a10.218,10.218,0,0,1,1.059.743,4.706,4.706,0,0,1,.787.8,3.175,3.175,0,0,1,.492.927,3.546,3.546,0,0,1,.167,1.125,4.181,4.181,0,0,1-.083.791,3.745,3.745,0,0,1-.286.866,3.476,3.476,0,0,1-1.45,1.551,5.067,5.067,0,0,1-1.288.5,7.239,7.239,0,0,1-1.753.189,7.858,7.858,0,0,1-1.094-.075,8.565,8.565,0,0,1-1.011-.2,8.88,8.88,0,0,1-.892-.286,6.717,6.717,0,0,1-.729-.325l.483-2.5a6.641,6.641,0,0,0,.708.448,6.2,6.2,0,0,0,.8.369,5.335,5.335,0,0,0,.866.246,4.694,4.694,0,0,0,.905.088,2.884,2.884,0,0,0,.853-.11,1.554,1.554,0,0,0,.571-.3,1.123,1.123,0,0,0,.316-.448,1.524,1.524,0,0,0,.1-.545,1.409,1.409,0,0,0-.092-.523,1.365,1.365,0,0,0-.3-.448,3.563,3.563,0,0,0-.558-.448q-.347-.233-.848-.523a7.315,7.315,0,0,1-.976-.646,4.1,4.1,0,0,1-.756-.773,3.4,3.4,0,0,1-.492-.949,3.64,3.64,0,0,1-.176-1.165A3.935,3.935,0,0,1,37.9,8.673a3.449,3.449,0,0,1,.853-1.257,4.3,4.3,0,0,1,1.481-.892,6.116,6.116,0,0,1,2.149-.338,8.535,8.535,0,0,1,1,.057q.483.057.923.154t.826.22q.387.123.7.255Zm10.1,4.254a6.987,6.987,0,0,1-.123,1.283,6.314,6.314,0,0,1-.387,1.288,5.682,5.682,0,0,1-.681,1.191,4.4,4.4,0,0,1-1.011.98,4.968,4.968,0,0,1-1.371.664,5.867,5.867,0,0,1-1.771.246,4.784,4.784,0,0,1-1.745-.29,3.327,3.327,0,0,1-1.226-.8,3.251,3.251,0,0,1-.721-1.208,4.658,4.658,0,0,1-.237-1.507,6.864,6.864,0,0,1,.132-1.323,6.063,6.063,0,0,1,.409-1.3,5.533,5.533,0,0,1,.708-1.173,4.584,4.584,0,0,1,1.028-.958,5.032,5.032,0,0,1,1.367-.646,5.847,5.847,0,0,1,1.727-.237,4.786,4.786,0,0,1,1.666.268,3.335,3.335,0,0,1,1.222.765,3.278,3.278,0,0,1,.756,1.2A4.457,4.457,0,0,1,55.447,13.568Zm-2.8.035a2.505,2.505,0,0,0-.088-.681,1.576,1.576,0,0,0-.259-.536,1.189,1.189,0,0,0-.989-.479,1.639,1.639,0,0,0-.989.316,2.712,2.712,0,0,0-.734.817,4.194,4.194,0,0,0-.457,1.125,5.061,5.061,0,0,0-.158,1.248,1.858,1.858,0,0,0,.374,1.239,1.214,1.214,0,0,0,.971.439,1.7,1.7,0,0,0,1.006-.308,2.578,2.578,0,0,0,.729-.8,4.016,4.016,0,0,0,.444-1.121A5.38,5.38,0,0,0,52.644,13.6Zm11.61-5.766a4.521,4.521,0,0,0-.541-.171,2.336,2.336,0,0,0-.576-.075,1.277,1.277,0,0,0-.958.343,2.233,2.233,0,0,0-.5,1.072L61.468,10h2.048l-.431,2.048H60.993l-2.136,9.94H56.08l2.127-9.94H56.678L57.126,10h1.512l.29-1.292A4.155,4.155,0,0,1,60.3,6.265a4.268,4.268,0,0,1,2.729-.8,5.861,5.861,0,0,1,.9.07,4.976,4.976,0,0,1,.751.167Zm5.309,4.21h-2.1l-.721,3.366q-.018.114-.044.246t-.048.264q-.022.132-.04.25a1.394,1.394,0,0,0-.018.2.685.685,0,0,0,.176.519.827.827,0,0,0,.58.167,1.738,1.738,0,0,0,.268-.026q.163-.026.334-.07t.33-.092q.158-.048.255-.083L68.1,18.842a3.839,3.839,0,0,1-.387.123q-.229.062-.5.114t-.567.088a4.854,4.854,0,0,1-.576.035,3.148,3.148,0,0,1-1.116-.171,1.786,1.786,0,0,1-.716-.475,1.742,1.742,0,0,1-.378-.708,3.343,3.343,0,0,1-.11-.879q0-.141.018-.325t.048-.378q.031-.193.07-.391t.075-.365l.721-3.463H63.3L63.788,10h1.327l.457-2.109L68.5,7.17,67.91,10h2.136ZM80.039,19H77.156l-.211-5.326q0-.272.022-.606t.048-.545H76.98q-.035.132-.083.281t-.105.308q-.057.158-.114.3t-.11.259L74.063,19H71.127l-.606-9h2.663v5.854q0,.2-.022.51a3.708,3.708,0,0,1-.066.51h.053q.035-.088.083-.229l.1-.294q.053-.154.105-.3a2.254,2.254,0,0,1,.105-.255L76.277,10h2.681l.167,5.836q0,.1,0,.246t-.018.3q-.013.154-.026.29a1.873,1.873,0,0,1-.031.215h.062q.026-.088.07-.229t.1-.3q.053-.158.105-.3t.088-.229L81.823,10h2.7Zm12.938-2.971q-.062.272-.119.659t-.105.8q-.048.417-.079.817t-.031.69H89.83q0-.132.013-.338t.031-.422q.018-.215.04-.422t.04-.347h-.035q-.255.343-.527.659a3.527,3.527,0,0,1-.606.558,2.93,2.93,0,0,1-.743.387,2.821,2.821,0,0,1-.945.145,2.77,2.77,0,0,1-1.173-.237,2.323,2.323,0,0,1-.866-.686,3.157,3.157,0,0,1-.536-1.094,5.33,5.33,0,0,1-.185-1.463,6.89,6.89,0,0,1,.092-1.015,6.66,6.66,0,0,1,.334-1.266,6.372,6.372,0,0,1,.672-1.318,4.988,4.988,0,0,1,1.1-1.182,5.472,5.472,0,0,1,1.626-.853A6.97,6.97,0,0,1,90.41,9.78q.5,0,1.006.04t.993.105q.488.066.945.154t.853.176Zm-1.89-4.21a3.645,3.645,0,0,0-.448-.066q-.246-.022-.466-.022a2.609,2.609,0,0,0-1.063.2,2.729,2.729,0,0,0-.8.527,3.1,3.1,0,0,0-.567.738,4.669,4.669,0,0,0-.365.839,5.052,5.052,0,0,0-.193.831,5.163,5.163,0,0,0-.057.712,2.6,2.6,0,0,0,.066.6,1.4,1.4,0,0,0,.207.479,1.022,1.022,0,0,0,.347.316.973.973,0,0,0,.479.114,1.459,1.459,0,0,0,.892-.29,2.838,2.838,0,0,0,.686-.743,4.7,4.7,0,0,0,.492-1.02,9.968,9.968,0,0,0,.321-1.121Zm10.688.738h-.018a2.417,2.417,0,0,0-.47-.176,2,2,0,0,0-.532-.079,1.864,1.864,0,0,0-.932.233,2.511,2.511,0,0,0-.729.628,3.691,3.691,0,0,0-.532.927,7.049,7.049,0,0,0-.347,1.129L97.424,19H94.611l1.23-5.739q.088-.413.171-.853t.158-.866q.075-.426.132-.822T96.4,10h2.751q-.026.255-.057.527t-.062.523q-.031.25-.062.453l-.048.316h.035a5.286,5.286,0,0,1,1.147-1.525,2.081,2.081,0,0,1,1.393-.514,2.28,2.28,0,0,1,.448.044q.22.044.4.07Zm9.132-.237a2.775,2.775,0,0,1-.294,1.274,2.551,2.551,0,0,1-.984,1,5.86,5.86,0,0,1-1.833.664,15.212,15.212,0,0,1-2.848.268.3.3,0,0,0-.018.092V15.7a1.766,1.766,0,0,0,.088.545,1.244,1.244,0,0,0,.3.492,1.579,1.579,0,0,0,.567.356,2.451,2.451,0,0,0,.879.136,4.587,4.587,0,0,0,.69-.057,6.228,6.228,0,0,0,.76-.167,7.691,7.691,0,0,0,.769-.264,5.872,5.872,0,0,0,.708-.338l-.431,2.074a5.828,5.828,0,0,1-.624.272,7.516,7.516,0,0,1-.76.237,7.394,7.394,0,0,1-.87.167,7.142,7.142,0,0,1-.945.062,4.607,4.607,0,0,1-1.749-.3,3.337,3.337,0,0,1-1.2-.8,3.132,3.132,0,0,1-.69-1.182,4.64,4.64,0,0,1-.22-1.441,6.276,6.276,0,0,1,.382-2.188,5.536,5.536,0,0,1,1.09-1.819A5.187,5.187,0,0,1,107.61,9.78a4.751,4.751,0,0,1,1.512.211,2.882,2.882,0,0,1,1.02.567,2.192,2.192,0,0,1,.58.813A2.512,2.512,0,0,1,110.906,12.32Zm-2.646.035a.693.693,0,0,0-.242-.541.99.99,0,0,0-.681-.215,1.729,1.729,0,0,0-.743.167,2.3,2.3,0,0,0-.65.461,2.8,2.8,0,0,0-.505.7,3.637,3.637,0,0,0-.316.883,5.5,5.5,0,0,0,2.36-.36A1.188,1.188,0,0,0,108.261,12.355Z" transform="translate(226 5737.446)" fill="#fff"/>
    <path id="Trazado_673755" data-name="Trazado 673755" d="M23.433,19H15.875V6.4h7.269V8.708h-4.43v2.8h4.122v2.3H18.713V16.7h4.72Zm1.16-.237v-2.25a5.913,5.913,0,0,0,1.367.615,4.531,4.531,0,0,0,1.288.2,2.762,2.762,0,0,0,1.165-.2.653.653,0,0,0,.426-.615.569.569,0,0,0-.193-.439,1.8,1.8,0,0,0-.5-.308,5.635,5.635,0,0,0-.664-.237q-.36-.105-.694-.237a6.653,6.653,0,0,1-.945-.435,2.731,2.731,0,0,1-.686-.541,2.125,2.125,0,0,1-.422-.712,2.841,2.841,0,0,1-.145-.958,2.466,2.466,0,0,1,.33-1.3,2.692,2.692,0,0,1,.879-.892,4.016,4.016,0,0,1,1.257-.51,6.553,6.553,0,0,1,1.472-.163,8.168,8.168,0,0,1,1.213.092,9.053,9.053,0,0,1,1.213.268v2.145a4.383,4.383,0,0,0-1.129-.461,4.764,4.764,0,0,0-1.182-.154,2.619,2.619,0,0,0-.514.048,1.693,1.693,0,0,0-.426.141.783.783,0,0,0-.29.237.546.546,0,0,0-.105.33.609.609,0,0,0,.158.422,1.374,1.374,0,0,0,.413.3,4.078,4.078,0,0,0,.567.229q.312.1.62.207a8.056,8.056,0,0,1,1,.422,3.2,3.2,0,0,1,.769.536,2.105,2.105,0,0,1,.492.721,2.884,2.884,0,0,1-.176,2.351,2.78,2.78,0,0,1-.923.923,4.185,4.185,0,0,1-1.327.519,7.357,7.357,0,0,1-1.56.163A8.042,8.042,0,0,1,24.593,18.763Zm11.32-.809h-.035V23.14H33.1V10h2.777v1.354h.035a3.534,3.534,0,0,1,5.594-.374,5.108,5.108,0,0,1,.954,3.265,5.537,5.537,0,0,1-1.112,3.612,3.625,3.625,0,0,1-2.958,1.362A2.8,2.8,0,0,1,35.914,17.954Zm-.079-3.691v.721a2.291,2.291,0,0,0,.492,1.521,1.6,1.6,0,0,0,1.292.589,1.7,1.7,0,0,0,1.472-.734,3.543,3.543,0,0,0,.523-2.079q0-2.373-1.846-2.373a1.733,1.733,0,0,0-1.393.646A2.576,2.576,0,0,0,35.834,14.263Zm16.515,1.028H46.478q.141,1.96,2.47,1.96a4.822,4.822,0,0,0,2.61-.7v2a6.858,6.858,0,0,1-3.243.668,4.565,4.565,0,0,1-3.384-1.208,4.566,4.566,0,0,1-1.2-3.371,4.816,4.816,0,0,1,1.3-3.551,4.334,4.334,0,0,1,3.2-1.31,3.933,3.933,0,0,1,3.045,1.169,4.5,4.5,0,0,1,1.077,3.173Zm-2.575-1.705q0-1.934-1.564-1.934a1.494,1.494,0,0,0-1.156.554,2.513,2.513,0,0,0-.593,1.38Zm11.048,5.089a5.492,5.492,0,0,1-2.716.545,4.593,4.593,0,0,1-3.357-1.257,4.341,4.341,0,0,1-1.283-3.243A4.782,4.782,0,0,1,54.841,11.1,5.083,5.083,0,0,1,58.519,9.78a4.72,4.72,0,0,1,2.3.422v2.355a3.166,3.166,0,0,0-1.942-.65,2.559,2.559,0,0,0-1.894.7,2.607,2.607,0,0,0-.7,1.929,2.565,2.565,0,0,0,.668,1.876,2.455,2.455,0,0,0,1.837.681,3.666,3.666,0,0,0,2.03-.65Zm3.226-10.1A1.622,1.622,0,0,1,62.9,8.159a1.345,1.345,0,0,1-.448-1.024,1.3,1.3,0,0,1,.448-1.02,1.88,1.88,0,0,1,2.307,0,1.3,1.3,0,0,1,.444,1.02A1.34,1.34,0,0,1,65.2,8.172,1.65,1.65,0,0,1,64.047,8.576ZM65.418,19H62.641V10h2.777ZM73.627,7.8A2.806,2.806,0,0,0,72.6,7.592q-1.336,0-1.336,1.45V10H73.32v2.048H71.263V19H68.495V12.048H66.983V10h1.512V8.884a3.24,3.24,0,0,1,1-2.479,3.821,3.821,0,0,1,2.725-.94,4.785,4.785,0,0,1,1.406.176Zm2.435.773a1.622,1.622,0,0,1-1.151-.417,1.345,1.345,0,0,1-.448-1.024,1.3,1.3,0,0,1,.448-1.02,1.88,1.88,0,0,1,2.307,0,1.3,1.3,0,0,1,.444,1.02,1.34,1.34,0,0,1-.444,1.037A1.65,1.65,0,0,1,76.062,8.576ZM77.433,19H74.656V10h2.777Zm9.158-.325a5.492,5.492,0,0,1-2.716.545,4.593,4.593,0,0,1-3.357-1.257,4.341,4.341,0,0,1-1.283-3.243A4.782,4.782,0,0,1,80.61,11.1,5.083,5.083,0,0,1,84.289,9.78a4.72,4.72,0,0,1,2.3.422v2.355a3.166,3.166,0,0,0-1.942-.65,2.559,2.559,0,0,0-1.894.7,2.607,2.607,0,0,0-.7,1.929,2.565,2.565,0,0,0,.668,1.876,2.455,2.455,0,0,0,1.837.681,3.666,3.666,0,0,0,2.03-.65ZM95.9,19H93.271V17.708h-.035a2.933,2.933,0,0,1-2.681,1.512,2.8,2.8,0,0,1-2.061-.743,2.661,2.661,0,0,1-.751-1.982q0-2.619,3.1-3.023l2.443-.325q0-1.477-1.6-1.477a5.46,5.46,0,0,0-3.059.958V10.536a6.881,6.881,0,0,1,1.586-.527,8.339,8.339,0,0,1,1.833-.229q3.85,0,3.85,3.841Zm-2.61-3.656v-.606l-1.635.211Q90.3,15.124,90.3,16.17a1.01,1.01,0,0,0,.33.778,1.266,1.266,0,0,0,.892.3A1.644,1.644,0,0,0,92.8,16.71,1.952,1.952,0,0,0,93.289,15.344Zm11.628,3.331a5.492,5.492,0,0,1-2.716.545,4.593,4.593,0,0,1-3.357-1.257A4.341,4.341,0,0,1,97.56,14.72,4.782,4.782,0,0,1,98.936,11.1a5.083,5.083,0,0,1,3.678-1.323,4.72,4.72,0,0,1,2.3.422v2.355a3.166,3.166,0,0,0-1.942-.65,2.559,2.559,0,0,0-1.894.7,2.607,2.607,0,0,0-.7,1.929,2.565,2.565,0,0,0,.668,1.876,2.455,2.455,0,0,0,1.837.681,3.666,3.666,0,0,0,2.03-.65Zm3.226-10.1a1.622,1.622,0,0,1-1.151-.417,1.345,1.345,0,0,1-.448-1.024,1.3,1.3,0,0,1,.448-1.02,1.88,1.88,0,0,1,2.307,0,1.3,1.3,0,0,1,.444,1.02,1.34,1.34,0,0,1-.444,1.037A1.65,1.65,0,0,1,108.142,8.576ZM109.513,19h-2.777V10h2.777Zm6.627.22a4.838,4.838,0,0,1-3.538-1.261,4.573,4.573,0,0,1-1.288-3.423,4.573,4.573,0,0,1,1.336-3.494,5.048,5.048,0,0,1,3.612-1.261,4.78,4.78,0,0,1,3.516,1.261,4.483,4.483,0,0,1,1.274,3.335,4.759,4.759,0,0,1-1.314,3.542A4.892,4.892,0,0,1,116.14,19.22Zm.07-7.312a1.852,1.852,0,0,0-1.529.677,2.984,2.984,0,0,0-.545,1.916q0,2.593,2.092,2.593,2,0,2-2.663Q118.223,11.907,116.21,11.907Zm2.979-6.17-2.751,2.839h-2l2.285-2.839ZM131.539,19H128.77V14q0-2.092-1.494-2.092a1.483,1.483,0,0,0-1.187.554,2.109,2.109,0,0,0-.466,1.406V19h-2.777V10h2.777v1.424h.035A3.183,3.183,0,0,1,128.55,9.78q2.988,0,2.988,3.709ZM18.555,31.8a2.806,2.806,0,0,0-1.028-.211q-1.336,0-1.336,1.45V34h2.057v2.048H16.191V43H13.422V36.048H11.911V34h1.512V32.884a3.24,3.24,0,0,1,1-2.479,3.821,3.821,0,0,1,2.725-.94,4.785,4.785,0,0,1,1.406.176ZM28.135,43H25.367V41.629h-.044a3.141,3.141,0,0,1-2.751,1.591q-3.129,0-3.129-3.788V34h2.769v5.186q0,1.907,1.512,1.907a1.5,1.5,0,0,0,1.2-.523,2.109,2.109,0,0,0,.448-1.419V34h2.769Zm11.03,0H36.4V38q0-2.092-1.494-2.092a1.483,1.483,0,0,0-1.187.554,2.109,2.109,0,0,0-.466,1.406V43H30.473V34H33.25v1.424h.035a3.183,3.183,0,0,1,2.892-1.644q2.988,0,2.988,3.709Zm9.018-.325a5.492,5.492,0,0,1-2.716.545,4.593,4.593,0,0,1-3.357-1.257,4.341,4.341,0,0,1-1.283-3.243A4.782,4.782,0,0,1,42.2,35.1,5.083,5.083,0,0,1,45.88,33.78a4.72,4.72,0,0,1,2.3.422v2.355a3.166,3.166,0,0,0-1.942-.65,2.559,2.559,0,0,0-1.894.7,2.607,2.607,0,0,0-.7,1.929,2.565,2.565,0,0,0,.668,1.876,2.455,2.455,0,0,0,1.837.681,3.666,3.666,0,0,0,2.03-.65Zm3.226-10.1a1.622,1.622,0,0,1-1.151-.417,1.345,1.345,0,0,1-.448-1.024,1.3,1.3,0,0,1,.448-1.02,1.88,1.88,0,0,1,2.307,0,1.3,1.3,0,0,1,.444,1.02,1.34,1.34,0,0,1-.444,1.037A1.65,1.65,0,0,1,51.409,32.576ZM52.78,43H50V34H52.78Zm6.627.22a4.838,4.838,0,0,1-3.538-1.261,4.573,4.573,0,0,1-1.288-3.423,4.573,4.573,0,0,1,1.336-3.494A5.048,5.048,0,0,1,59.53,33.78a4.78,4.78,0,0,1,3.516,1.261,4.483,4.483,0,0,1,1.274,3.335,4.759,4.759,0,0,1-1.314,3.542A4.892,4.892,0,0,1,59.407,43.22Zm.07-7.312a1.852,1.852,0,0,0-1.529.677A2.984,2.984,0,0,0,57.4,38.5q0,2.593,2.092,2.593,2,0,2-2.663Q61.49,35.907,59.477,35.907ZM74.814,43H72.045V38q0-2.092-1.494-2.092a1.483,1.483,0,0,0-1.187.554,2.109,2.109,0,0,0-.466,1.406V43H66.122V34H68.9v1.424h.035a3.183,3.183,0,0,1,2.892-1.644q2.988,0,2.988,3.709ZM84.5,43H81.872V41.708h-.035a2.933,2.933,0,0,1-2.681,1.512,2.8,2.8,0,0,1-2.061-.743,2.661,2.661,0,0,1-.751-1.982q0-2.619,3.1-3.023l2.443-.325q0-1.477-1.6-1.477a5.46,5.46,0,0,0-3.059.958V34.536a6.881,6.881,0,0,1,1.586-.527,8.339,8.339,0,0,1,1.833-.229q3.85,0,3.85,3.841Zm-2.61-3.656v-.606l-1.635.211Q78.9,39.124,78.9,40.17a1.01,1.01,0,0,0,.33.778,1.266,1.266,0,0,0,.892.3A1.644,1.644,0,0,0,81.4,40.71,1.952,1.952,0,0,0,81.889,39.344ZM89.474,43H86.7V29.676h2.777Zm15.873-9-3.656,9.721q-1.318,3.507-3.973,3.507A5.09,5.09,0,0,1,96.057,47V44.784a2.336,2.336,0,0,0,1.2.325A1.5,1.5,0,0,0,98.755,44.1l.475-1.116L95.574,34H98.65l1.679,5.476a7.115,7.115,0,0,1,.246,1.2h.035a8.4,8.4,0,0,1,.29-1.187L102.6,34Zm17.692,9h-2.865l-5.194-7.919a11.451,11.451,0,0,1-.633-1.046h-.035q.07.668.07,2.039V43H111.7V30.4h3.059l5,7.673q.343.519.633,1.028h.035a13.476,13.476,0,0,1-.07-1.731V30.4h2.681Zm6.9.22a4.838,4.838,0,0,1-3.538-1.261,4.573,4.573,0,0,1-1.288-3.423,4.573,4.573,0,0,1,1.336-3.494,5.048,5.048,0,0,1,3.612-1.261,4.78,4.78,0,0,1,3.516,1.261,4.483,4.483,0,0,1,1.274,3.335,4.759,4.759,0,0,1-1.314,3.542A4.892,4.892,0,0,1,129.939,43.22Zm.07-7.312a1.852,1.852,0,0,0-1.529.677,2.984,2.984,0,0,0-.545,1.916q0,2.593,2.092,2.593,2,0,2-2.663Q132.022,35.907,130.009,35.907ZM40.976,55.8a2.806,2.806,0,0,0-1.028-.211q-1.336,0-1.336,1.45V58h2.057v2.048H38.612V67H35.843V60.048H34.332V58h1.512V56.884a3.24,3.24,0,0,1,1-2.479,3.821,3.821,0,0,1,2.725-.94,4.785,4.785,0,0,1,1.406.176ZM50.556,67H47.788V65.629h-.044a3.141,3.141,0,0,1-2.751,1.591q-3.129,0-3.129-3.788V58h2.769v5.186q0,1.907,1.512,1.907a1.5,1.5,0,0,0,1.2-.523,2.109,2.109,0,0,0,.448-1.419V58h2.769Zm11.03,0H58.818V62q0-2.092-1.494-2.092a1.483,1.483,0,0,0-1.187.554,2.109,2.109,0,0,0-.466,1.406V67H52.894V58h2.777v1.424h.035A3.183,3.183,0,0,1,58.6,57.78q2.988,0,2.988,3.709Zm9.018-.325a5.492,5.492,0,0,1-2.716.545,4.593,4.593,0,0,1-3.357-1.257,4.341,4.341,0,0,1-1.283-3.243A4.782,4.782,0,0,1,64.623,59.1,5.083,5.083,0,0,1,68.3,57.78a4.72,4.72,0,0,1,2.3.422v2.355a3.166,3.166,0,0,0-1.942-.65,2.559,2.559,0,0,0-1.894.7,2.607,2.607,0,0,0-.7,1.929,2.565,2.565,0,0,0,.668,1.876,2.455,2.455,0,0,0,1.837.681,3.666,3.666,0,0,0,2.03-.65Zm3.226-10.1a1.622,1.622,0,0,1-1.151-.417,1.345,1.345,0,0,1-.448-1.024,1.3,1.3,0,0,1,.448-1.02,1.88,1.88,0,0,1,2.307,0,1.3,1.3,0,0,1,.444,1.02,1.34,1.34,0,0,1-.444,1.037A1.65,1.65,0,0,1,73.83,56.576ZM75.2,67H72.423V58H75.2Zm6.627.22a4.838,4.838,0,0,1-3.538-1.261,5.216,5.216,0,0,1,.048-6.917,5.048,5.048,0,0,1,3.612-1.261,4.78,4.78,0,0,1,3.516,1.261,4.483,4.483,0,0,1,1.274,3.335,4.759,4.759,0,0,1-1.314,3.542A4.892,4.892,0,0,1,81.828,67.22Zm.07-7.312a1.852,1.852,0,0,0-1.529.677,2.984,2.984,0,0,0-.545,1.916q0,2.593,2.092,2.593,2,0,2-2.663Q83.911,59.907,81.9,59.907ZM97.235,67H94.466V62q0-2.092-1.494-2.092a1.483,1.483,0,0,0-1.187.554,2.109,2.109,0,0,0-.466,1.406V67H88.542V58H91.32v1.424h.035a3.183,3.183,0,0,1,2.892-1.644q2.988,0,2.988,3.709Zm9.686,0h-2.628V65.708h-.035a2.933,2.933,0,0,1-2.681,1.512,2.8,2.8,0,0,1-2.061-.743,2.661,2.661,0,0,1-.751-1.982q0-2.619,3.1-3.023l2.443-.325q0-1.477-1.6-1.477a5.46,5.46,0,0,0-3.059.958V58.536a6.881,6.881,0,0,1,1.586-.527,8.339,8.339,0,0,1,1.833-.229q3.85,0,3.85,3.841Zm-2.61-3.656v-.606l-1.635.211q-1.354.176-1.354,1.222a1.01,1.01,0,0,0,.33.778,1.266,1.266,0,0,0,.892.3,1.644,1.644,0,0,0,1.274-.541A1.952,1.952,0,0,0,104.31,63.344ZM111.9,67h-2.777V53.676H111.9Z" transform="translate(891 5653.446)" fill="#fff"/>
    <path id="Trazado_673756" data-name="Trazado 673756" d="M14.539,19H6.98V6.4h7.269V8.708H9.819v2.8h4.122v2.3H9.819V16.7h4.72ZM24.98,10l-2.971,4.359L24.962,19h-3.2l-1.3-2.426q-.158-.29-.378-.817h-.035a5.707,5.707,0,0,1-.36.791L18.379,19h-3.19l3.041-4.482L15.374,10H18.59l1.283,2.522a5.532,5.532,0,0,1,.36.844h.035a5.946,5.946,0,0,1,.378-.861l1.31-2.5Zm4.061,7.954h-.035V23.14H26.228V10h2.777v1.354h.035a3.534,3.534,0,0,1,5.594-.374,5.108,5.108,0,0,1,.954,3.265,5.537,5.537,0,0,1-1.112,3.612,3.625,3.625,0,0,1-2.958,1.362A2.8,2.8,0,0,1,29.041,17.954Zm-.079-3.691v.721a2.291,2.291,0,0,0,.492,1.521,1.6,1.6,0,0,0,1.292.589,1.7,1.7,0,0,0,1.472-.734,3.543,3.543,0,0,0,.523-2.079q0-2.373-1.846-2.373a1.733,1.733,0,0,0-1.393.646A2.576,2.576,0,0,0,28.961,14.263Zm16.515,1.028H39.6q.141,1.96,2.47,1.96a4.822,4.822,0,0,0,2.61-.7v2a6.858,6.858,0,0,1-3.243.668,4.565,4.565,0,0,1-3.384-1.208,4.566,4.566,0,0,1-1.2-3.371,4.816,4.816,0,0,1,1.3-3.551,4.334,4.334,0,0,1,3.2-1.31A3.933,3.933,0,0,1,44.4,10.949a4.5,4.5,0,0,1,1.077,3.173ZM42.9,13.586q0-1.934-1.564-1.934a1.494,1.494,0,0,0-1.156.554,2.513,2.513,0,0,0-.593,1.38Zm11.048,5.089a5.492,5.492,0,0,1-2.716.545,4.593,4.593,0,0,1-3.357-1.257,4.341,4.341,0,0,1-1.283-3.243A4.782,4.782,0,0,1,47.968,11.1,5.083,5.083,0,0,1,51.646,9.78a4.72,4.72,0,0,1,2.3.422v2.355a3.166,3.166,0,0,0-1.942-.65,2.559,2.559,0,0,0-1.894.7,2.607,2.607,0,0,0-.7,1.929,2.565,2.565,0,0,0,.668,1.876,2.455,2.455,0,0,0,1.837.681,3.666,3.666,0,0,0,2.03-.65Zm7.26.22a4.105,4.105,0,0,1-1.854.325q-2.936,0-2.936-3.05V12.048H54.959V10h1.459V8.058l2.769-.791V10h2.021v2.048H59.187v3.639q0,1.406,1.116,1.406a1.882,1.882,0,0,0,.905-.255ZM70.261,19H67.633V17.708H67.6a2.933,2.933,0,0,1-2.681,1.512,2.8,2.8,0,0,1-2.061-.743A2.661,2.661,0,0,1,62.1,16.5q0-2.619,3.1-3.023l2.443-.325q0-1.477-1.6-1.477a5.46,5.46,0,0,0-3.059.958V10.536a6.881,6.881,0,0,1,1.586-.527,8.339,8.339,0,0,1,1.833-.229q3.85,0,3.85,3.841Zm-2.61-3.656v-.606l-1.635.211q-1.354.176-1.354,1.222a1.01,1.01,0,0,0,.33.778,1.266,1.266,0,0,0,.892.3,1.644,1.644,0,0,0,1.274-.541A1.952,1.952,0,0,0,67.651,15.344ZM77.9,18.895a4.105,4.105,0,0,1-1.854.325q-2.936,0-2.936-3.05V12.048H71.65V10h1.459V8.058l2.769-.791V10H77.9v2.048H75.877v3.639q0,1.406,1.116,1.406a1.882,1.882,0,0,0,.905-.255ZM80.87,8.576a1.622,1.622,0,0,1-1.151-.417,1.345,1.345,0,0,1-.448-1.024,1.3,1.3,0,0,1,.448-1.02,1.88,1.88,0,0,1,2.307,0,1.3,1.3,0,0,1,.444,1.02,1.34,1.34,0,0,1-.444,1.037A1.65,1.65,0,0,1,80.87,8.576ZM82.241,19H79.463V10h2.777Zm10.907-9L89.8,19H86.635l-3.19-9h2.971l1.564,5.546a8.1,8.1,0,0,1,.308,1.6h.035a9.078,9.078,0,0,1,.325-1.547l1.6-5.6Zm8.4,9H98.922V17.708h-.035a2.933,2.933,0,0,1-2.681,1.512,2.8,2.8,0,0,1-2.061-.743,2.661,2.661,0,0,1-.751-1.982q0-2.619,3.1-3.023l2.443-.325q0-1.477-1.6-1.477a5.46,5.46,0,0,0-3.059.958V10.536a6.881,6.881,0,0,1,1.586-.527A8.339,8.339,0,0,1,97.7,9.78q3.85,0,3.85,3.841Zm-2.61-3.656v-.606l-1.635.211q-1.354.176-1.354,1.222a1.01,1.01,0,0,0,.33.778,1.266,1.266,0,0,0,.892.3,1.644,1.644,0,0,0,1.274-.541A1.952,1.952,0,0,0,98.94,15.344Zm4.219,3.419v-2.25a5.913,5.913,0,0,0,1.367.615,4.531,4.531,0,0,0,1.288.2,2.762,2.762,0,0,0,1.165-.2.653.653,0,0,0,.426-.615.569.569,0,0,0-.193-.439,1.8,1.8,0,0,0-.5-.308,5.635,5.635,0,0,0-.664-.237q-.36-.105-.694-.237a6.653,6.653,0,0,1-.945-.435,2.731,2.731,0,0,1-.686-.541,2.125,2.125,0,0,1-.422-.712,2.841,2.841,0,0,1-.145-.958,2.466,2.466,0,0,1,.33-1.3,2.692,2.692,0,0,1,.879-.892,4.016,4.016,0,0,1,1.257-.51A6.553,6.553,0,0,1,107.1,9.78a8.168,8.168,0,0,1,1.213.092,9.053,9.053,0,0,1,1.213.268v2.145a4.383,4.383,0,0,0-1.129-.461,4.764,4.764,0,0,0-1.182-.154,2.619,2.619,0,0,0-.514.048,1.693,1.693,0,0,0-.426.141.783.783,0,0,0-.29.237.546.546,0,0,0-.105.33.609.609,0,0,0,.158.422,1.374,1.374,0,0,0,.413.3,4.078,4.078,0,0,0,.567.229q.312.1.62.207a8.056,8.056,0,0,1,1,.422,3.2,3.2,0,0,1,.769.536,2.105,2.105,0,0,1,.492.721,2.884,2.884,0,0,1-.176,2.351,2.78,2.78,0,0,1-.923.923,4.185,4.185,0,0,1-1.327.519,7.357,7.357,0,0,1-1.56.163A8.042,8.042,0,0,1,103.159,18.763Zm22.28.237h-2.777V17.761h-.035a3.114,3.114,0,0,1-2.786,1.459,3.412,3.412,0,0,1-2.716-1.191A4.93,4.93,0,0,1,116.1,14.7a5.366,5.366,0,0,1,1.134-3.577A3.7,3.7,0,0,1,120.2,9.78a2.527,2.527,0,0,1,2.426,1.248h.035V5.676h2.777Zm-2.725-4.377v-.677a2.13,2.13,0,0,0-.51-1.459,1.8,1.8,0,0,0-2.769.145,3.367,3.367,0,0,0-.519,1.991,2.914,2.914,0,0,0,.5,1.828,1.779,1.779,0,0,0,2.764-.035A2.821,2.821,0,0,0,122.714,14.623Zm13.148.668h-5.871q.141,1.96,2.47,1.96a4.822,4.822,0,0,0,2.61-.7v2a6.858,6.858,0,0,1-3.243.668,4.565,4.565,0,0,1-3.384-1.208,4.566,4.566,0,0,1-1.2-3.371,4.816,4.816,0,0,1,1.3-3.551,4.334,4.334,0,0,1,3.2-1.31,3.933,3.933,0,0,1,3.045,1.169,4.5,4.5,0,0,1,1.077,3.173Zm-2.575-1.705q0-1.934-1.564-1.934a1.494,1.494,0,0,0-1.156.554,2.513,2.513,0,0,0-.593,1.38Zm7,5.414h-2.777V5.676h2.777ZM53.4,42.675a5.492,5.492,0,0,1-2.716.545,4.593,4.593,0,0,1-3.357-1.257,4.341,4.341,0,0,1-1.283-3.243A4.782,4.782,0,0,1,47.423,35.1,5.083,5.083,0,0,1,51.1,33.78a4.72,4.72,0,0,1,2.3.422v2.355a3.166,3.166,0,0,0-1.942-.65,2.559,2.559,0,0,0-1.894.7,2.607,2.607,0,0,0-.7,1.929,2.565,2.565,0,0,0,.668,1.876,2.455,2.455,0,0,0,1.837.681,3.666,3.666,0,0,0,2.03-.65ZM58,43H55.223V29.676H58Zm3.744-10.424a1.622,1.622,0,0,1-1.151-.417,1.345,1.345,0,0,1-.448-1.024,1.3,1.3,0,0,1,.448-1.02,1.88,1.88,0,0,1,2.307,0,1.3,1.3,0,0,1,.444,1.02,1.34,1.34,0,0,1-.444,1.037A1.65,1.65,0,0,1,61.745,32.576ZM63.116,43H60.338V34h2.777ZM73.54,39.291H67.668q.141,1.96,2.47,1.96a4.822,4.822,0,0,0,2.61-.7v2a6.858,6.858,0,0,1-3.243.668,4.189,4.189,0,0,1-4.588-4.579,4.816,4.816,0,0,1,1.3-3.551,4.334,4.334,0,0,1,3.2-1.31,3.933,3.933,0,0,1,3.045,1.169,4.5,4.5,0,0,1,1.077,3.173Zm-2.575-1.705q0-1.934-1.564-1.934a1.494,1.494,0,0,0-1.156.554,2.513,2.513,0,0,0-.593,1.38ZM83.884,43H81.116V38q0-2.092-1.494-2.092a1.483,1.483,0,0,0-1.187.554,2.109,2.109,0,0,0-.466,1.406V43H75.192V34h2.777v1.424H78A3.183,3.183,0,0,1,80.9,33.78q2.988,0,2.988,3.709Zm7.638-.105a4.105,4.105,0,0,1-1.854.325q-2.936,0-2.936-3.05V36.048H85.273V34h1.459V32.058l2.769-.791V34h2.021v2.048H89.5v3.639q0,1.406,1.116,1.406a1.882,1.882,0,0,0,.905-.255Zm9.58-3.6H95.231q.141,1.96,2.47,1.96a4.822,4.822,0,0,0,2.61-.7v2a6.858,6.858,0,0,1-3.243.668,4.189,4.189,0,0,1-4.588-4.579,4.816,4.816,0,0,1,1.3-3.551,4.334,4.334,0,0,1,3.2-1.31,3.933,3.933,0,0,1,3.045,1.169,4.5,4.5,0,0,1,1.077,3.173Zm-2.575-1.705q0-1.934-1.564-1.934a1.494,1.494,0,0,0-1.156.554,2.513,2.513,0,0,0-.593,1.38Z" transform="translate(891 5808.446)" fill="#fff"/>
    <path id="Trazado_673757" data-name="Trazado 673757" d="M44.035,14.658V19H41.2V6.4h4.447q4.764,0,4.764,4.017a3.854,3.854,0,0,1-1.367,3.072,5.414,5.414,0,0,1-3.652,1.173Zm0-6.082V12.5h1.116q2.268,0,2.268-1.986,0-1.942-2.268-1.942ZM57.851,12.5a2.409,2.409,0,0,0-1.169-.272,1.684,1.684,0,0,0-1.415.664,2.9,2.9,0,0,0-.51,1.806V19H51.98V10h2.777v1.67h.035a2.4,2.4,0,0,1,2.373-1.828,1.788,1.788,0,0,1,.686.105Zm9.9,6.5H64.979V17.629h-.044a3.141,3.141,0,0,1-2.751,1.591q-3.129,0-3.129-3.788V10h2.769v5.186q0,1.907,1.512,1.907a1.5,1.5,0,0,0,1.2-.523,2.109,2.109,0,0,0,.448-1.419V10h2.769Zm10.424-3.709H72.3q.141,1.96,2.47,1.96a4.822,4.822,0,0,0,2.61-.7v2a6.858,6.858,0,0,1-3.243.668,4.565,4.565,0,0,1-3.384-1.208,4.566,4.566,0,0,1-1.2-3.371,4.816,4.816,0,0,1,1.3-3.551,4.334,4.334,0,0,1,3.2-1.31,3.933,3.933,0,0,1,3.045,1.169,4.5,4.5,0,0,1,1.077,3.173ZM75.6,13.586q0-1.934-1.564-1.934a1.494,1.494,0,0,0-1.156.554,2.513,2.513,0,0,0-.593,1.38Zm7.04,4.368H82.6V19H79.824V5.676H82.6v5.678h.035A3.3,3.3,0,0,1,85.563,9.78a3.211,3.211,0,0,1,2.681,1.2,5.155,5.155,0,0,1,.94,3.27,5.582,5.582,0,0,1-1.1,3.612A3.579,3.579,0,0,1,85.15,19.22,2.836,2.836,0,0,1,82.636,17.954Zm-.079-3.8v.923a2.107,2.107,0,0,0,.5,1.441,1.63,1.63,0,0,0,1.283.571,1.7,1.7,0,0,0,1.472-.734,3.543,3.543,0,0,0,.523-2.079,2.819,2.819,0,0,0-.479-1.745,1.616,1.616,0,0,0-1.367-.628,1.766,1.766,0,0,0-1.384.624A2.37,2.37,0,0,0,82.557,14.157ZM98.3,19H95.67V17.708h-.035a2.933,2.933,0,0,1-2.681,1.512,2.8,2.8,0,0,1-2.061-.743,2.661,2.661,0,0,1-.751-1.982q0-2.619,3.1-3.023l2.443-.325q0-1.477-1.6-1.477a5.46,5.46,0,0,0-3.059.958V10.536a6.881,6.881,0,0,1,1.586-.527,8.339,8.339,0,0,1,1.833-.229q3.85,0,3.85,3.841Zm-2.61-3.656v-.606l-1.635.211Q92.7,15.124,92.7,16.17a1.01,1.01,0,0,0,.33.778,1.266,1.266,0,0,0,.892.3A1.644,1.644,0,0,0,95.2,16.71,1.952,1.952,0,0,0,95.688,15.344Zm4.219,3.419v-2.25a5.913,5.913,0,0,0,1.367.615,4.531,4.531,0,0,0,1.288.2,2.762,2.762,0,0,0,1.165-.2.653.653,0,0,0,.426-.615.569.569,0,0,0-.193-.439,1.8,1.8,0,0,0-.5-.308,5.635,5.635,0,0,0-.664-.237q-.36-.105-.694-.237a6.653,6.653,0,0,1-.945-.435,2.731,2.731,0,0,1-.686-.541,2.125,2.125,0,0,1-.422-.712,2.841,2.841,0,0,1-.145-.958,2.466,2.466,0,0,1,.33-1.3,2.692,2.692,0,0,1,.879-.892,4.016,4.016,0,0,1,1.257-.51,6.553,6.553,0,0,1,1.472-.163,8.168,8.168,0,0,1,1.213.092,9.053,9.053,0,0,1,1.213.268v2.145a4.383,4.383,0,0,0-1.129-.461,4.764,4.764,0,0,0-1.182-.154,2.619,2.619,0,0,0-.514.048,1.693,1.693,0,0,0-.426.141.783.783,0,0,0-.29.237.546.546,0,0,0-.105.33.609.609,0,0,0,.158.422,1.374,1.374,0,0,0,.413.3,4.078,4.078,0,0,0,.567.229q.312.1.62.207a8.056,8.056,0,0,1,1,.422,3.2,3.2,0,0,1,.769.536,2.105,2.105,0,0,1,.492.721,2.884,2.884,0,0,1-.176,2.351,2.78,2.78,0,0,1-.923.923,4.185,4.185,0,0,1-1.327.519,7.357,7.357,0,0,1-1.56.163A8.042,8.042,0,0,1,99.907,18.763Z" transform="translate(563 5513.446)" fill="#fff"/>
    <path id="Trazado_673758" data-name="Trazado 673758" d="M24.176,6.4,19.834,19H16.617L12.328,6.4h3.059l2.628,8.771a6.282,6.282,0,0,1,.255,1.257h.053a7.1,7.1,0,0,1,.272-1.292L21.205,6.4ZM33.246,19H25.688V6.4h7.269V8.708h-4.43v2.8h4.122v2.3H28.526V16.7h4.72Zm12.595,0H42.58l-1.96-3.243q-.22-.369-.422-.659a3.662,3.662,0,0,0-.409-.5,1.625,1.625,0,0,0-.431-.316,1.093,1.093,0,0,0-.488-.11h-.765V19H35.268V6.4h4.5q4.588,0,4.588,3.428a3.55,3.55,0,0,1-.2,1.217,3.382,3.382,0,0,1-.571,1.006,3.621,3.621,0,0,1-.892.773,4.6,4.6,0,0,1-1.165.51v.035a1.806,1.806,0,0,1,.545.286,3.9,3.9,0,0,1,.51.461,6.438,6.438,0,0,1,.47.567q.224.3.409.593ZM38.106,8.523V12.03h1.23A2.04,2.04,0,0,0,40.8,11.5a1.76,1.76,0,0,0,.563-1.327q0-1.652-1.978-1.652ZM49.857,19H47.019V6.4h2.839ZM60.009,8.708H55.562V11.8h4.087v2.3H55.562V19H52.723V6.4h7.286ZM64.922,19H62.083V6.4h2.839Zm11.9-.448a8.311,8.311,0,0,1-3.6.668,6.074,6.074,0,0,1-4.562-1.705A6.233,6.233,0,0,1,67,12.971a6.659,6.659,0,0,1,1.868-4.9,6.533,6.533,0,0,1,4.847-1.881,9.065,9.065,0,0,1,3.111.466V9.385a5.513,5.513,0,0,0-2.883-.756,3.824,3.824,0,0,0-2.865,1.116,4.142,4.142,0,0,0-1.09,3.023,4.062,4.062,0,0,0,1.028,2.914,3.633,3.633,0,0,0,2.769,1.085,5.905,5.905,0,0,0,3.041-.809ZM90.1,19H87.009l-.9-2.8H81.63L80.742,19H77.666L82.254,6.4H85.62Zm-4.641-4.983L84.108,9.78A5.521,5.521,0,0,1,83.9,8.646h-.07a4.807,4.807,0,0,1-.22,1.1l-1.371,4.271Zm14.977,4.535a8.311,8.311,0,0,1-3.6.668,6.074,6.074,0,0,1-4.562-1.705,6.233,6.233,0,0,1-1.661-4.544,6.659,6.659,0,0,1,1.868-4.9,6.533,6.533,0,0,1,4.847-1.881,9.065,9.065,0,0,1,3.111.466V9.385a5.513,5.513,0,0,0-2.883-.756A3.824,3.824,0,0,0,94.69,9.745a4.142,4.142,0,0,0-1.09,3.023,4.062,4.062,0,0,0,1.028,2.914A3.633,3.633,0,0,0,97.4,16.768a5.905,5.905,0,0,0,3.041-.809Zm5.036.448h-2.839V6.4h2.839Zm8.191.22a5.867,5.867,0,0,1-4.412-1.762,6.327,6.327,0,0,1-1.705-4.592,6.779,6.779,0,0,1,1.731-4.834,6,6,0,0,1,4.588-1.846,5.721,5.721,0,0,1,4.364,1.767A6.513,6.513,0,0,1,119.9,12.61a6.671,6.671,0,0,1-1.727,4.79A5.928,5.928,0,0,1,113.666,19.22Zm.123-10.591a2.858,2.858,0,0,0-2.373,1.121,4.672,4.672,0,0,0-.879,2.966,4.586,4.586,0,0,0,.879,2.962,3.033,3.033,0,0,0,4.632.031,4.536,4.536,0,0,0,.861-2.94,4.915,4.915,0,0,0-.835-3.05A2.722,2.722,0,0,0,113.789,8.629Zm2.865-6.24L113.9,5.228h-2l2.285-2.839ZM133.318,19h-2.865l-5.194-7.919a11.451,11.451,0,0,1-.633-1.046h-.035q.07.668.07,2.039V19H121.98V6.4h3.059l5,7.673q.343.519.633,1.028h.035a13.476,13.476,0,0,1-.07-1.731V6.4h2.681Z" transform="translate(1227 5677.446)" fill="#fff"/>
    <path id="Trazado_673759" data-name="Trazado 673759" d="M31.027,6.4,26.685,19H23.468L19.179,6.4h3.059l2.628,8.771a6.282,6.282,0,0,1,.255,1.257h.053a7.1,7.1,0,0,1,.272-1.292L28.056,6.4ZM42.69,19H39.6l-.9-2.8H34.217L33.33,19H30.253L34.841,6.4h3.366Zm-4.641-4.983L36.7,9.78a5.521,5.521,0,0,1-.211-1.134h-.07a4.807,4.807,0,0,1-.22,1.1l-1.371,4.271ZM51.769,19H44.263V6.4H47.1V16.7h4.667ZM56.3,19H53.465V6.4H56.3Zm2.865,0V6.4h4.465q6.715,0,6.715,6.144a6.212,6.212,0,0,1-1.833,4.7A6.757,6.757,0,0,1,63.634,19ZM62.008,8.708V16.7h1.406a3.8,3.8,0,0,0,2.9-1.107,4.2,4.2,0,0,0,1.05-3.015,3.812,3.812,0,0,0-1.042-2.834A3.971,3.971,0,0,0,63.4,8.708ZM83.251,19H80.158l-.9-2.8H74.779L73.891,19H70.815L75.4,6.4h3.366Zm-4.641-4.983L77.257,9.78a5.521,5.521,0,0,1-.211-1.134h-.07a4.807,4.807,0,0,1-.22,1.1l-1.371,4.271Zm14.977,4.535a8.311,8.311,0,0,1-3.6.668,6.074,6.074,0,0,1-4.562-1.705,6.233,6.233,0,0,1-1.661-4.544,6.659,6.659,0,0,1,1.868-4.9,6.533,6.533,0,0,1,4.847-1.881,9.065,9.065,0,0,1,3.111.466V9.385A5.513,5.513,0,0,0,90.7,8.629a3.824,3.824,0,0,0-2.865,1.116,4.142,4.142,0,0,0-1.09,3.023,4.062,4.062,0,0,0,1.028,2.914,3.633,3.633,0,0,0,2.769,1.085,5.905,5.905,0,0,0,3.041-.809ZM98.624,19H95.785V6.4h2.839Zm8.191.22a5.867,5.867,0,0,1-4.412-1.762,6.327,6.327,0,0,1-1.705-4.592,6.779,6.779,0,0,1,1.731-4.834,6,6,0,0,1,4.588-1.846,5.721,5.721,0,0,1,4.364,1.767,6.513,6.513,0,0,1,1.666,4.658,6.671,6.671,0,0,1-1.727,4.79A5.928,5.928,0,0,1,106.815,19.22Zm.123-10.591a2.858,2.858,0,0,0-2.373,1.121,4.672,4.672,0,0,0-.879,2.966,4.586,4.586,0,0,0,.879,2.962,3.033,3.033,0,0,0,4.632.031,4.536,4.536,0,0,0,.861-2.94,4.915,4.915,0,0,0-.835-3.05A2.722,2.722,0,0,0,106.938,8.629Zm2.865-6.24-2.751,2.839h-2l2.285-2.839ZM126.467,19H123.6l-5.194-7.919a11.451,11.451,0,0,1-.633-1.046h-.035q.07.668.07,2.039V19h-2.681V6.4h3.059l5,7.673q.343.519.633,1.028h.035a13.476,13.476,0,0,1-.07-1.731V6.4h2.681Z" transform="translate(1227 5821.446)" fill="#fff"/>
    <path id="Trazado_673760" data-name="Trazado 673760" d="M0,0V414" transform="translate(475 5513.446)" fill="none" stroke="#ef3c79" stroke-width="5" stroke-dasharray="10"/>
    <path id="Trazado_673761" data-name="Trazado 673761" d="M0,0V414" transform="translate(790 5513.446)" fill="none" stroke="#ef3c79" stroke-width="5" stroke-dasharray="10"/>
    <g transform="matrix(1, 0, 0, 1, 137, 5409.61)" filter="url(#Trazado_673762)">
      <path id="Trazado_673762-2" data-name="Trazado 673762" d="M0,0H399.564V9H0Z" transform="translate(279.44 334.48)" fill="#ef3c79"/>
    </g>
    <g transform="matrix(1, 0, 0, 1, 137, 5409.61)" filter="url(#Trazado_673763)">
      <path id="Trazado_673763-2" data-name="Trazado 673763" d="M0,0H62V9H0Z" transform="translate(982 274.34)" fill="#ef3c79"/>
    </g>
    <g transform="matrix(1, 0, 0, 1, 137, 5409.61)" filter="url(#Trazado_673764)">
      <path id="Trazado_673764-2" data-name="Trazado 673764" d="M0,0H62V9H0Z" transform="translate(982 418.92)" fill="#ef3c79"/>
    </g>
    <g transform="matrix(1, 0, 0, 1, 137, 5409.61)" filter="url(#Trazado_673765)">
      <path id="Trazado_673765-2" data-name="Trazado 673765" d="M0,0H29V9H0Z" transform="translate(679 274.34)" fill="#ef3c79"/>
    </g>
    <g transform="matrix(1, 0, 0, 1, 137, 5409.61)" filter="url(#Trazado_673766)">
      <path id="Trazado_673766-2" data-name="Trazado 673766" d="M0,0H29V9H0Z" transform="translate(679 413.84)" fill="#ef3c79"/>
    </g>
    <g transform="matrix(1, 0, 0, 1, 137, 5409.61)" filter="url(#Trazado_673767)">
      <path id="Trazado_673767-2" data-name="Trazado 673767" d="M0,0H148.5V9H0Z" transform="translate(679 422.84) rotate(-90)" fill="#ef3c79"/>
    </g>
    <g transform="matrix(1, 0, 0, 1, 137, 5409.61)" filter="url(#Trazado_673768)">
      <path id="Trazado_673768-2" data-name="Trazado 673768" d="M18,0,36,30.709H0Z" transform="translate(954.29 296.26) rotate(-90)" fill="#ef3c79"/>
    </g>
    <g transform="matrix(1, 0, 0, 1, 137, 5409.61)" filter="url(#Trazado_673769)">
      <path id="Trazado_673769-2" data-name="Trazado 673769" d="M18,0,36,30.709H0Z" transform="translate(954.29 440.84) rotate(-90)" fill="#ef3c79"/>
    </g>
  </g>
</svg>
